/* XPM */
static char *gpomme_24x24[] = {
/* columns rows colors chars-per-pixel */
"24 24 47 1",
"  c black",
". c #2E3436",
"X c #303537",
"o c #313738",
"O c #353A3C",
"+ c #363B3D",
"@ c #525756",
"# c #575C5B",
"$ c #5B605F",
"% c #70726D",
"& c #888A85",
"* c #90938D",
"= c #91948E",
"- c #92958F",
"; c #B3B4B0",
": c #B4B6B1",
"> c #BABDB6",
", c #C0C2BD",
"< c #C1C3BE",
"1 c #C2C3BE",
"2 c #C8CAC7",
"3 c #C9CBC7",
"4 c #CACBC7",
"5 c #CACAC8",
"6 c #D3D7CF",
"7 c #D5D5CF",
"8 c #D8D8D2",
"9 c #DADAD5",
"0 c #DADAD6",
"q c #DADAD7",
"w c #DBDBD7",
"e c #DBDBD8",
"r c #DCDCD9",
"t c #DDDDD9",
"y c #DCDDDA",
"u c #DDDDDA",
"i c #DEDEDB",
"p c #DFDFDC",
"a c #E0E0DC",
"s c #E3E3E0",
"d c #E6E6E3",
"f c #E9E9E6",
"g c #E8EAE6",
"h c #EAEBE8",
"j c #ECECE9",
"k c #EEEEEC",
"l c None",
/* pixels */
"llllllllllllllllllllllll",
"llllllllllllllllllllllll",
"llllllllllllllllllllllll",
"llllllllllllllllllllllll",
"llllllllllllllllllllllll",
"lllo&&&&&&&&&&&&&&&&Xlll",
"ll#:<<<<<<<,<<<<<<<<;@ll",
"l&&4>jfjjfjjjjjfjjj>3&ll",
"l=&t>ffffffffffffff>e&ll",
"l-&i>kdd.ddd..d..dk>t&ll",
"l-&i>kssssss.sss.sk>e&ll",
"l-&t>k.a.a.a..aa.ak>e&ll",
"l-&e>ktttttt.ttt.tk>0&ll",
"l-&e>k00.000.000.0k>e&ll",
"l-&0>k888888888888k>0&ll",
"l=&t>k777777777777k>t&ll",
"l&&f>kkkkkkkkkkkkkk>h&ll",
"l&&f>>>>>>>>>>>>>>>>h&ll",
"l $366666666666666663# l",
"l  +%%%%%%%%%%%%%%%%+  l",
"l                      l",
"llllllllllllllllllllllll",
"llllllllllllllllllllllll",
"llllllllllllllllllllllll"
};
