/* XPM */
static char *gpomme_64x64[] = {
/* columns rows colors chars-per-pixel */
"64 64 75 1",
"  c black",
". c #2E3436",
"X c #313739",
"o c #33393B",
"O c #383E3F",
"+ c #383E40",
"@ c #3C4143",
"# c gray25",
"$ c #414648",
"% c #43494A",
"& c #4A4C4C",
"* c #4D5253",
"= c #535452",
"- c #565854",
"; c #565A5B",
": c #585954",
"> c #595C59",
", c #5E6263",
"< c #60625E",
"1 c #606565",
"2 c #636768",
"3 c #666A6A",
"4 c #696D6C",
"5 c #6C7071",
"6 c #727573",
"7 c #757875",
"8 c #767979",
"9 c #797D7B",
"0 c #7D807D",
"q c #7E8181",
"w c #80837E",
"e c #828483",
"r c #858887",
"t c #868988",
"y c #8B8D8B",
"u c #8D908F",
"i c #8F9291",
"p c #90938E",
"a c #939592",
"s c #9A9D9B",
"d c #9EA09D",
"f c #9FA2A1",
"g c #A2A39E",
"h c #A4A5A2",
"j c #A6A8A6",
"k c #A7A9A8",
"l c #A8A9A4",
"z c #AAACA8",
"x c #AEB0AD",
"c c #B0B1AD",
"v c #B3B4B1",
"b c #B7B9B5",
"n c #B9BCB6",
"m c #BDBDBA",
"M c #BDC0B9",
"N c #C1C3BE",
"B c #C6C6C2",
"V c #C6C9C4",
"C c #C9CAC6",
"Z c #CCCDC9",
"A c #CED0CB",
"S c #D3D3CE",
"D c #D5D5D1",
"F c #D7D8D4",
"G c #D9D9D4",
"H c #DDDDD9",
"J c #DEE0DC",
"K c #E0E0DD",
"L c #E4E4E2",
"P c #E7E8E6",
"I c #E8E8E5",
"U c #EBEBE9",
"Y c #F4F5F4",
"T c #FEFEFE",
"R c None",
/* pixels */
"RRRRRRRRRRRRRRRRRRRRRRRRRRRRRRRRRRRRRRRRRRRRRRRRRRRRRRRRRRRRRRRR",
"RRRRRRRRRRRRRRRRRRRRRRRRRRRRRRRRRRRRRRRRRRRRRRRRRRRRRRRRRRRRRRRR",
"RRRRRRRRRRRRRRRRRRRRRRRRRRRRRRRRRRRRRRRRRRRRRRRRRRRRRRRRRRRRRRRR",
"RRRRRRRRRRRRRRRRRRRRRRRRRRRRRRRRRRRRRRRRRRRRRRRRRRRRRRRRRRRRRRRR",
"RRRRRRRRRRRRRRRRRRRRRRRRRRRRRRRRRRRRRRRRRRRRRRRRRRRRRRRRRRRRRRRR",
"RRRRRRRRRRRRRRRRRRRRRRRRRRRRRRRRRRRRRRRRRRRRRRRRRRRRRRRRRRRRRRRR",
"RRRRRRRRRRRRRRRRRRRRRRRRRRRRRRRRRRRRRRRRRRRRRRRRRRRRRRRRRRRRRRRR",
"RRRRRRRRRRRRRRRRRRRRRRRRRRRRRRRRRRRRRRRRRRRRRRRRRRRRRRRRRRRRRRRR",
"RRRRRRRRRRRRRRRRRRRRRRRRRRRRRRRRRRRRRRRRRRRRRRRRRRRRRRRRRRRRRRRR",
"RRRRRRRRRRRRRRRRRRRRRRRRRRRRRRRRRRRRRRRRRRRRRRRRRRRRRRRRRRRRRRRR",
"RRRRRRRRRRRRRRRRRRRRRRRRRRRRRRRRRRRRRRRRRRRRRRRRRRRRRRRRRRRRRRRR",
"RRRRRRRRRRRRRRRRRRRRRRRRRRRRRRRRRRRRRRRRRRRRRRRRRRRRRRRRRRRRRRRR",
"RRRRRRRRRRRRRRRRRRRRRRRRRRRRRRRRRRRRRRRRRRRRRRRRRRRRRRRRRRRRRRRR",
"RRRRRRRRe&&==&&*=&*&&=&*&&*&==&&&*&=&=&=&=&=&=&==&=&&*=RRRRRRRRR",
"RRRRR=-:==:-==::=:=::=:=:==:====::===-=-=-=-=-=---==-----=#RRRRR",
"RRRR=::ehczzzzzzzzzzzzzzzzzzzzczzzzzzzzzzzzzzzzzzzzzzzcd9=-=RRRR",
"RRR=-pCZclgdggggggggggggggggggggggggggggggghgghhggggghlcSNw:-RRR",
"RR%-4KUggvBBBBBCBCCCBBCBBCBCBBBCBBCCBBBBBBBBBBBCBBCBBNcglYS>-RRR",
"RR--NBlcKUUUUUUUUUUUUUUUUUUUUUUUUUUUUUUUUUUUUUUUUUUUUUUFllAc-=RR",
"RR=6DclHUUUUUUUUUUUUUUUUUUUUUUUUUUUUUUUUUUUUUUUUUUUUUUUUDhbG-=RR",
"RR:aZcnUUIUUUUUIUUUUUUUUUUIUIUUIUUUULUUUUUUIUUIUUUIUIUUUUccS7=RR",
"RR:lBzCIIIIIIIIIIIs5IIIIIIIIIIIIUIIIIILUUIIIIIIIIIIIIIIIIMcAp-RR",
"RR:lNcAIIIIIIIIILI9XIIIIIIIIIIIIIIIIIIIIULLUIIPPIIIIIIIIINcCp-RR",
"RR:lNcAILILPGCLPLI9oILILLmLILIILIIIKILIIIULLLPLLIILILILIINcCa-RR",
"RR=zNvALLLLL,+BPLIZNPLLK3XCPLPLIKIIIKIILa$&%%%fL*&&=LIIILNcCa:RR",
"RR:zNbSLLLLLm+%KLLLLPKLr.rPKLLLLKIKIIKLLe.;333xL53oOKIKKIBnBa:RR",
"RR-zNbALKLILLmbLHi3>qBKHsLKPLLLLKIKIKIKLr.kLLLLLLL%OIKKIKBnCp-RR",
"RR=zNmDLLLLKLKKS**us5okKKLKKLKKPIKKKLKLKeXkLLLJLJL&OLKIKLCmBa-RR",
"RR-zNmDHKKKKKKK23HKKLk+CKKHKKLKKKKKKKKKLe.kLKLKLKL$+KKLKKCMVa:RR",
"RR-zNNDKKHASFKZ.SKKKKK2yKHSSFKKKKKKKKKKKe.ekzxKKKK$+KKKKKZNVa:RR",
"RR-zNBDHKn..1Kk%HKHKKKt3Kh..8KHKKKKKKKKHe....%LHHL&+KKKKKANCp-RR",
"RR-zNBDHHZttdKmoHHKHHK88HBrrkHKHKKHKHHKHe.tvvbHHHH$+HHHHHABCa-RR",
"RR:zNCDHHHHHHJG@sHHHHZ@hHHHHHHHHHHHHHHHHe.hHHHHHHH%OHHHHHSBCa:RR",
"RR=zNZDHHHHHHHJhoaDHb=3HHHHHHHHHHHHHHHGHe.hHHHHHHH%OHHHHGSCBa:RR",
"RR=zNADHGHHHHSSHz$.oX9DHZGGHGHHGHHGHHGHHe.hHHHHGHG%OHHHGHSCCp:RR",
"RR:lNDDGGGGHD,>DHGBbFHHp#nHGHGHGGHHGGHGGw.hHGGGHGH$OGHGGGDZCp=RR",
"RR-zNDGGGGGG1.rGGGHFGGGbOONGGGGGGGGGGGGHw.gGGGGGGG$OGGGGGFAVa:RR",
"RR-zNDGGGGGGgrGGFFt=GGGGn6DGGGGGGGGGGGGGa<cGGGGGGG41GGGGGFSVa>RR",
"RR-zNGGGGGGGDGGDFF6oGGDGGGFDGGDGGGGDGGDGDGDGGGGDGGDDGGDDGGDVp-RR",
"RR-zNHGDDDDDGDDGDF6oDGDDDDGDSGDGDDGDDDDDDGDDDDDDDGDGGDDGDGDCa-RR",
"RR-zNHGDDDDDGSDDDDZNGDDDDDDDDDDDDDDDDDDDDDDDDDDDDDDDDDDDDHFVa-RR",
"RR-zNGHDSDDSDSSGDDSDDDDDSDDSSDDDDDDSDDDSDDDSSDDDDSDSSDSDDLAVa-RR",
"RR-zVZLGSSSSSSSSSSSDSSSSSSSDSSSSSSSSSSSDSDSSSDSDSSSSSDDDGLBZa-RR",
"RR-sABLLFSSSSSSSSSSSSSSSSSSSSSSSSSSSSSSSSSSSSSSDSSSSSSAHLLmDe=RR",
"RR-0JUUPULJJJJKKKKKKHKKKJJKJJJKKKKKKKKKKKKKKKKKKKJJKJLLUPUPH<-RR",
"RR=>UYUJZGLLLLLLLLKKKLLLLLLLLLLLLKLKLKKKKKKKKKKKLLLLLLDVIUYL=-RR",
"RR--vYYAnnnnnnnnnnnnnnnnnnnnnnnnnnnnMnnMMMnnNnnnnnbnnnnnHYYu-=RR",
"RRR--ZYHCVMMMnMnNnNnNmmnMMMMMnMnMMMMMMMMMMMMMMMMMMMMnMVZJYc-=RRR",
"RRR ==unZHJJHJHJKJHJHJJJHJHJKJHJJJJKJJJKJJJKJJJJJJJJKJGCc0=-RRRR",
"RRRRR=:-=->>>>>:>>>>>:>>>>>:>>>>>>:>:>:>>>:>>>:>:>>>>>---:-RRRRR",
"RRRRRRR>=======-===========-=========-==================&RRRRRRR",
"RRRRRRRRRRRRRRRRRRRRRRRRRRRRRRRRRRRRRRRRRRRRRRRRRRRRRRRRRRRRRRRR",
"RRRRRRRRRRRRRRRRRRRRRRRRRRRRRRRRRRRRRRRRRRRRRRRRRRRRRRRRRRRRRRRR",
"RRRRRRRRRRRRRRRRRRRRRRRRRRRRRRRRRRRRRRRRRRRRRRRRRRRRRRRRRRRRRRRR",
"RRRRRRRRRRRRRRRRRRRRRRRRRRRRRRRRRRRRRRRRRRRRRRRRRRRRRRRRRRRRRRRR",
"RRRRRRRRRRRRRRRRRRRRRRRRRRRRRRRRRRRRRRRRRRRRRRRRRRRRRRRRRRRRRRRR",
"RRRRRRRRRRRRRRRRRRRRRRRRRRRRRRRRRRRRRRRRRRRRRRRRRRRRRRRRRRRRRRRR",
"RRRRRRRRRRRRRRRRRRRRRRRRRRRRRRRRRRRRRRRRRRRRRRRRRRRRRRRRRRRRRRRR",
"RRRRRRRRRRRRRRRRRRRRRRRRRRRRRRRRRRRRRRRRRRRRRRRRRRRRRRRRRRRRRRRR",
"RRRRRRRRRRRRRRRRRRRRRRRRRRRRRRRRRRRRRRRRRRRRRRRRRRRRRRRRRRRRRRRR",
"RRRRRRRRRRRRRRRRRRRRRRRRRRRRRRRRRRRRRRRRRRRRRRRRRRRRRRRRRRRRRRRR",
"RRRRRRRRRRRRRRRRRRRRRRRRRRRRRRRRRRRRRRRRRRRRRRRRRRRRRRRRRRRRRRRR",
"RRRRRRRRRRRRRRRRRRRRRRRRRRRRRRRRRRRRRRRRRRRRRRRRRRRRRRRRRRRRRRRR",
"RRRRRRRRRRRRRRRRRRRRRRRRRRRRRRRRRRRRRRRRRRRRRRRRRRRRRRRRRRRRRRRR"
};
