/* XPM */
static char *gpomme_128x128[] = {
/* columns rows colors chars-per-pixel */
"128 128 81 1",
"  c #2E3436",
". c #303638",
"X c #33393B",
"o c #383D3E",
"O c #383E40",
"+ c #3D4244",
"@ c #404647",
"# c #424749",
"$ c #454A4B",
"% c #484D4E",
"& c #494E50",
"* c #4C5152",
"= c #545653",
"- c #565854",
"; c #565A5A",
": c #595B57",
"> c #5A5D5D",
", c #5A5E60",
"< c #5C605D",
"1 c #5C6161",
"2 c #60625E",
"3 c #626461",
"4 c #666864",
"5 c #666A6A",
"6 c #686B66",
"7 c #696D6D",
"8 c #6F726D",
"9 c #6E7271",
"0 c #717574",
"q c #767873",
"w c #777B7B",
"e c #7A7C7A",
"r c #7F817E",
"t c #7E8281",
"y c #81837F",
"u c #838684",
"i c #848886",
"p c #868988",
"a c #898B86",
"s c #8A8D89",
"d c #8E9190",
"f c #91938E",
"g c #919492",
"h c #979A97",
"j c #989A98",
"k c #9DA09D",
"l c #A0A09B",
"z c #A4A5A0",
"x c #A7A8A4",
"c c #AAAAA5",
"v c #ACADA9",
"b c #AEB0AD",
"n c #B1B2AD",
"m c #B4B5B1",
"M c #B6B9B3",
"N c #B9BCB5",
"B c #BCBDB9",
"V c #BEC0BC",
"C c #C0C2BC",
"Z c #C4C5C2",
"A c #C6C8C3",
"S c #C8CBC5",
"D c #CCCDC9",
"F c #CED0CB",
"G c #D3D3CE",
"H c #D5D6D0",
"J c #D6D8D4",
"K c #D9D9D4",
"L c #DDDDD9",
"P c #DEE0DC",
"I c #E1E1DD",
"U c #E5E5E2",
"Y c #E6E8E5",
"T c #E8E8E6",
"R c #EBEBE9",
"E c #EFF0EE",
"W c #F0F1EF",
"Q c #F5F6F4",
"! c #F8F8F7",
"~ c gray100",
"^ c None",
/* pixels */
"^^^^^^^^^^^^^^^^^^^^^^^^^^^^^^^^^^^^^^^^^^^^^^^^^^^^^^^^^^^^^^^^^^^^^^^^^^^^^^^^^^^^^^^^^^^^^^^^^^^^^^^^^^^^^^^^^^^^^^^^^^^^^^^^",
"^^^^^^^^^^^^^^^^^^^^^^^^^^^^^^^^^^^^^^^^^^^^^^^^^^^^^^^^^^^^^^^^^^^^^^^^^^^^^^^^^^^^^^^^^^^^^^^^^^^^^^^^^^^^^^^^^^^^^^^^^^^^^^^^",
"^^^^^^^^^^^^^^^^^^^^^^^^^^^^^^^^^^^^^^^^^^^^^^^^^^^^^^^^^^^^^^^^^^^^^^^^^^^^^^^^^^^^^^^^^^^^^^^^^^^^^^^^^^^^^^^^^^^^^^^^^^^^^^^^",
"^^^^^^^^^^^^^^^^^^^^^^^^^^^^^^^^^^^^^^^^^^^^^^^^^^^^^^^^^^^^^^^^^^^^^^^^^^^^^^^^^^^^^^^^^^^^^^^^^^^^^^^^^^^^^^^^^^^^^^^^^^^^^^^^",
"^^^^^^^^^^^^^^^^^^^^^^^^^^^^^^^^^^^^^^^^^^^^^^^^^^^^^^^^^^^^^^^^^^^^^^^^^^^^^^^^^^^^^^^^^^^^^^^^^^^^^^^^^^^^^^^^^^^^^^^^^^^^^^^^",
"^^^^^^^^^^^^^^^^^^^^^^^^^^^^^^^^^^^^^^^^^^^^^^^^^^^^^^^^^^^^^^^^^^^^^^^^^^^^^^^^^^^^^^^^^^^^^^^^^^^^^^^^^^^^^^^^^^^^^^^^^^^^^^^^",
"^^^^^^^^^^^^^^^^^^^^^^^^^^^^^^^^^^^^^^^^^^^^^^^^^^^^^^^^^^^^^^^^^^^^^^^^^^^^^^^^^^^^^^^^^^^^^^^^^^^^^^^^^^^^^^^^^^^^^^^^^^^^^^^^",
"^^^^^^^^^^^^^^^^^^^^^^^^^^^^^^^^^^^^^^^^^^^^^^^^^^^^^^^^^^^^^^^^^^^^^^^^^^^^^^^^^^^^^^^^^^^^^^^^^^^^^^^^^^^^^^^^^^^^^^^^^^^^^^^^",
"^^^^^^^^^^^^^^^^^^^^^^^^^^^^^^^^^^^^^^^^^^^^^^^^^^^^^^^^^^^^^^^^^^^^^^^^^^^^^^^^^^^^^^^^^^^^^^^^^^^^^^^^^^^^^^^^^^^^^^^^^^^^^^^^",
"^^^^^^^^^^^^^^^^^^^^^^^^^^^^^^^^^^^^^^^^^^^^^^^^^^^^^^^^^^^^^^^^^^^^^^^^^^^^^^^^^^^^^^^^^^^^^^^^^^^^^^^^^^^^^^^^^^^^^^^^^^^^^^^^",
"^^^^^^^^^^^^^^^^^^^^^^^^^^^^^^^^^^^^^^^^^^^^^^^^^^^^^^^^^^^^^^^^^^^^^^^^^^^^^^^^^^^^^^^^^^^^^^^^^^^^^^^^^^^^^^^^^^^^^^^^^^^^^^^^",
"^^^^^^^^^^^^^^^^^^^^^^^^^^^^^^^^^^^^^^^^^^^^^^^^^^^^^^^^^^^^^^^^^^^^^^^^^^^^^^^^^^^^^^^^^^^^^^^^^^^^^^^^^^^^^^^^^^^^^^^^^^^^^^^^",
"^^^^^^^^^^^^^^^^^^^^^^^^^^^^^^^^^^^^^^^^^^^^^^^^^^^^^^^^^^^^^^^^^^^^^^^^^^^^^^^^^^^^^^^^^^^^^^^^^^^^^^^^^^^^^^^^^^^^^^^^^^^^^^^^",
"^^^^^^^^^^^^^^^^^^^^^^^^^^^^^^^^^^^^^^^^^^^^^^^^^^^^^^^^^^^^^^^^^^^^^^^^^^^^^^^^^^^^^^^^^^^^^^^^^^^^^^^^^^^^^^^^^^^^^^^^^^^^^^^^",
"^^^^^^^^^^^^^^^^^^^^^^^^^^^^^^^^^^^^^^^^^^^^^^^^^^^^^^^^^^^^^^^^^^^^^^^^^^^^^^^^^^^^^^^^^^^^^^^^^^^^^^^^^^^^^^^^^^^^^^^^^^^^^^^^",
"^^^^^^^^^^^^^^^^^^^^^^^^^^^^^^^^^^^^^^^^^^^^^^^^^^^^^^^^^^^^^^^^^^^^^^^^^^^^^^^^^^^^^^^^^^^^^^^^^^^^^^^^^^^^^^^^^^^^^^^^^^^^^^^^",
"^^^^^^^^^^^^^^^^^^^^^^^^^^^^^^^^^^^^^^^^^^^^^^^^^^^^^^^^^^^^^^^^^^^^^^^^^^^^^^^^^^^^^^^^^^^^^^^^^^^^^^^^^^^^^^^^^^^^^^^^^^^^^^^^",
"^^^^^^^^^^^^^^^^^^^^^^^^^^^^^^^^^^^^^^^^^^^^^^^^^^^^^^^^^^^^^^^^^^^^^^^^^^^^^^^^^^^^^^^^^^^^^^^^^^^^^^^^^^^^^^^^^^^^^^^^^^^^^^^^",
"^^^^^^^^^^^^^^^^^^^^^^^^^^^^^^^^^^^^^^^^^^^^^^^^^^^^^^^^^^^^^^^^^^^^^^^^^^^^^^^^^^^^^^^^^^^^^^^^^^^^^^^^^^^^^^^^^^^^^^^^^^^^^^^^",
"^^^^^^^^^^^^^^^^^^^^^^^^^^^^^^^^^^^^^^^^^^^^^^^^^^^^^^^^^^^^^^^^^^^^^^^^^^^^^^^^^^^^^^^^^^^^^^^^^^^^^^^^^^^^^^^^^^^^^^^^^^^^^^^^",
"^^^^^^^^^^^^^^^^^^^^^^^^^^^^^^^^^^^^^^^^^^^^^^^^^^^^^^^^^^^^^^^^^^^^^^^^^^^^^^^^^^^^^^^^^^^^^^^^^^^^^^^^^^^^^^^^^^^^^^^^^^^^^^^^",
"^^^^^^^^^^^^^^^^^^^^^^^^^^^^^^^^^^^^^^^^^^^^^^^^^^^^^^^^^^^^^^^^^^^^^^^^^^^^^^^^^^^^^^^^^^^^^^^^^^^^^^^^^^^^^^^^^^^^^^^^^^^^^^^^",
"^^^^^^^^^^^^^^^^^^^^^^^^^^^^^^^^^^^^^^^^^^^^^^^^^^^^^^^^^^^^^^^^^^^^^^^^^^^^^^^^^^^^^^^^^^^^^^^^^^^^^^^^^^^^^^^^^^^^^^^^^^^^^^^^",
"^^^^^^^^^^^^^^^^^^^^^^^^^^^^^^^^^^^^^^^^^^^^^^^^^^^^^^^^^^^^^^^^^^^^^^^^^^^^^^^^^^^^^^^^^^^^^^^^^^^^^^^^^^^^^^^^^^^^^^^^^^^^^^^^",
"^^^^^^^^^^^^^^^^^^^^^^^^^^^^^^^^^^^^^^^^^^^^^^^^^^^^^^^^^^^^^^^^^^^^^^^^^^^^^^^^^^^^^^^^^^^^^^^^^^^^^^^^^^^^^^^^^^^^^^^^^^^^^^^^",
"^^^^^^^^^^^^^^^^^^^^^^^^^^^^^^^^^^^^^^^^^^^^^^^^^^^^^^^^^^^^^^^^^^^^^^^^^^^^^^^^^^^^^^^^^^^^^^^^^^^^^^^^^^^^^^^^^^^^^^^^^^^^^^^^",
"^^^^^^^^^^^^^^^^^^^^^^^^^^^^^^^^^^^^^^^^^^^^^^^^^^^^^^^^^^^^^^^^^^^^^^^^^^^^^^^^^^^^^^^^^^^^^^^^^^^^^^^^^^^^^^^^^^^^^^^^^^^^^^^^",
"^^^^^^^^^^^^^^^^^==============================================================================================^^^^^^^^^^^^^^^^^",
"^^^^^^^^^^^^===============-============================-======================================================-===^^^^^^^^^^^^^",
"^^^^^^^^^^^====-====--=====-====--=================-====--=====-===-===-===-===-======--===========-=====-=====-=====^^^^^^^^^^^",
"^^^^^^^^^=====--2qusssssssssssssssssssssssssssssssssssaafssssssssssssssssssssssssssssssasssssssssssssssssssssy8:=-====^^^^^^^^^^",
"^^^^^^^^=====6lSPKGDSSSSSSSSSSSSSSSSSSSSSSSSSSSSSSSSSSSACADDDZZDSSSSSSSSSSSSSSSSSSSSSSSSSSSSSSSSSSSSSSSSSSSDFGPHCf:=====^^^^^^^^",
"^^^^^^^====<sFPGCMnvczzzzzzzzzzzzzzzzzzzzzzzzzzzzzzzzzzzzzzzzzzzzzzzzzzzzzzzzzzzzlzzzzzzzzzzzzzzllllclclzzzcnnCCKUCy-===^^^^^^^^",
"^^^^^^^===rYYKSMcllllllllllllllllllllllllllllllllllllllllllllllllllllllllllllllllllllllllllllllllllllllllllllllvCCITL:===^^^^^^^",
"^^^^^^===<K!!JblllllllllllllllllllllzllzlllzllllllllllllllllllllllzlllllllzlllllllllllllllllllzllllllllllllllzlllCU!Wn--==^^^^^^",
"^^^^^====lPPEAlllcZHIRRRERRRERREERRRRRRRRRRRRRRRRERERRERRRRRERRERRRRRRERRRRRRRERREERERRERRRERRRRWEERRRWWERTICCzzllTIPGr-==^^^^^^",
"^^^^^=-=qHKVblllBURRRRRRRRRRRRRRRRRRRRRRERRRRRRRRRRRRERRRRRRRRRRRRRRRRRRRRRRRRRRRRERRRRRRERRRRRRRRRRRRRRRRRRRRKnlclCCIC2===^^^^^",
"^^^^==-:APSNlxxHRRRRRRRRRRRRRERRRRRRRRRRRRRRRRRRRRRRRRRRRERRRRRRRRRERRRRRRERRRRRRRRRRRRRRRRRRRRRERRRRWRRRRRRRRRTCllnCKIl===^^^^^",
"^^^^===aPGNcclCRRRRRRRRRRRRRRRRRRRRRRRRRRRRRRRRRRRRRRRRRRRRRRRRRRRRRRRRRRRRRRRRRRRRRRRRRRRRRRRRRRRRRRRRRRRRRRRRRIcllnCKK:===^^^^",
"^^^^===nPCmccvURRRRRRRRRRRRRRRRRRRRRRRRRRRRRRRRRRRRRRRRRRRRRRRRRRRRRRTRRRRRRRRRTRRRRRRRRRRRRTRRRRRRRRTRRRRRRRRRTRHcccCCUy===^^^^",
"^^^^===FPNmlvSTRRTRRTRRRTRRRTRRRRTRTRRTTTRRRTRRTRTRRRTRTTRTRRTTRTRRTRTRTRTRRTRRRRTRTRRTRRTRTRTTRRRRRRRTRRRTRTRRRTTbcxNCPc===^^^^",
"^^^^==-PFNbcvKRTTRTTRTTRTTTTTTTTTRTTTTTTTTTTTTRTTTTTRTTRRTRTTRTTRTTRTRTRTTTTTTTTTRRTTTTTTRTRTRRRIRRRTTTTTTTTRTTTRTVccMVPm===^^^^",
"^^^^==<PFMvcvITTTTTTTTTTTRTTTRTTTTTTKlzcTTRTRTTTTTTTTTTTTTTRTTTTTTTTTRTTTTTTTRTTTTRTTTTRTTTTTTTTRIIRTRRRTTTRTTTRTTSvcmMKC--=^^^^",
"^^^^==6ISVvvmTTTTTTTTTTTTTTTTTTTTTTTZ. oTTTTTTTTTTTTTTTTTTTTTTTTTTTTTTTTTTTTTTTTTTTTTTTTTTTTTTTTRRRRRRIETTTTTTTTTTHcvmVHC:==^^^^",
"^^^^==2ICNvvmRTTTTTTTUTUTTUTTUTTTTTTC  .TUTUTTTTTTUTTTUTTTTTTTTTUTTUTTTUUTTTTTTTTTTTTTTTTTTTUTTYIRRRIRRITIRTTTRTUTKvvnVHC===^^^^",
"^^^^==2IDNnnnITTTTTUTTTTTTTTTTTTTTUTC  .TTTTTTTTTTTTUTTTTTTUUTUTTTTTTTTTTTTTTTUTTTUTTTTUTTTUTYTYRRIRIRRITRITTTITTTKnnmNGA===^^^^",
"^^^^==2ICCnnMTITUUUTUTUTUTUUTUYYTUTUC  oUTUTUTUTUTTUTUUTUTUTUTUTUTUTUTUTUTTUUUTUUUTUTUUTUUUTUTYYIRIRRIRRTTITTITIUUHnnmNHZ-==^^^^",
"^^^^-:6ICCnnMITTTUTUTUTUTb7UYYUYUTUTN  .TUTUTUTUUH,DUTTUTUTUTUTUTUTUTUTUTUUTUTUTUTUTUTUUTUTUTUYYRIRIIRRIIRTTTTTTYUKnbmNHZ===^^^^",
"^^^^==2PSNnnBUUUTUUUUUUUbO 3IUUUUUUUHffgUUUTUUUUG& ODUTUUUUUUUUTUUTUUUUUTUUUUUUUI31,35151,150TYU5,333339UUUUUTUUUYKnmmBHZ===^^^^",
"^^^^==2PSMmmMUUUUUUUTUUT5   5IUYUTUTUUTUUUUUTUUG#O OdUUUUUUTUUUUUUUUUUUUUUUUTUUTJ O     O   OUUYO O .  +UTUUUUUUUUKmmMBHZ===^^^^",
"^^^^=-2ISBmmBUUUUUUUUUUUL,   5IUUUIUUUUUUUUUUUD$O  iUUUUUUUUUUUUUUUUUUUUUUUUUUUUJ    O   O  OYUUO      #UUUUUUUUUUKmmMNHZ===^^^^",
"^^^^=<2ISBMMBIIUUUUUUUUUUI1  &HIUUUUUUUUUUUUUUBO  wIUUUUUUUUUUUUUUUUUUUUUUUUUUUUH   ;kkkkzkkxUUUkkzx*  +UUUUUUUUUUKMMMNHZ===^^^^",
"^^^^==6PABMMBIIUUUUIUUIUUII,$GIUUUUDcp9fmJIUIUImOiUUUUUIUIUIUUUUUIIUUIIUIUIUIIUUJO  0UUIIUUUIUUUUUPU,  +UIUUUIUUUUJMMMMHZ===^^^^",
"^^^^==2PABBMBUUUIIUUIUUUUUIIGUUUUD,       wPUUUUDIUUIUUUUUUUUIUIUUUUUUUUUUUUUUIUJ   0IUUIUIUUUIUUUUU,  #UUUIUUUIIUJMMBBGZ===^^^^",
"^^^^==2IABBBCIUIUIIUIIIIIIIUIIIUjO...=7%   #mUIUIIIIUUIUUIIUIIUUIIUUIIUUIUUIIUUIH   0UIUUUIUIUUUUIPU,  +IUIUUIIUIUKBBBMJZ===^^^^",
"^^^^==6IABBBBUIUIUUIUUIUUIUIIUIj  OzLIUIHtO OZUIUIUIIIIIIUIIIUIIIUIIIUIIIIIUIIUIH  O0IUIIIUIIIIIUPUP,  +IIUIIUIUUIHBBBBHZ===^^^^",
"^^^^==2ISNVNCIIIIUIIIIUIIIIIIIDO ,GIIIIIIUB$ *IUIUIIIIIIIIIIUIIUIUIIIIIIUIUIIUIIK   9IIUUIIIIIIIPPIU,  OIIUIIUIIIIJBBBMJZ===^^^^",
"^^^^==2ISVCCZIIIIIIIIIIIUIIUII, +GIIIIIIIIIm  pIIIIIIIUIIUUIIIIIIIIIIIIIIIIIIIIIK   0IIIIIIIIIIIIIII,OOOIIIIIIIIIIJVCBNGZ===^^^^",
"^^^^==2PSNCCCIIIIIIIIIIIIIIIIZ  xIIIIIIIIIIIw #IIIIIIIIIIIIIIIIIIIIIIIIIIIIIIIIIH   0IIUIIIIIIIIIIII;  OIIIIIIIIIIJZVBNJZ===^^^^",
"^^^^=-6PSNCCZIIIIIIKZZZZZHIIIz .LIIIIIIIIIIIm  GIIUDZZZBZLIIILIIIIIIIIIIIIIIIIIIH   &990000dIIIIIIII, OOLIIIIIIIIIJCZBNHZ===^^^^",
"^^^^==6PSNCZZIIIIIIj     jLIIr =IIIILIIIIIIIG  vIIP7O    ZIILIIIIIILLIIILIIIIIIIH          ,IILIIPPI,  OIILIIILIIPJZZVNHZ===^^^^",
"^^^^==2PSNZZZPIIIIIj     jIII4 7ILILLILIPIILIO gPPI7     ZLIIIIIIIIIIILIIILIIIILG          ,LIILPPPI, O+LIIIILIIIIJZZVNHZ===^^^^",
"^^^^==2PSNZAAIILLLIj     jIIIu &LLIIIILLPPLIG  nPPP7   O ZLILLLLIILIILILLIILKILIH   *pppppplIILIPPIL,  OLIIILIILIPJZACNHZ===^^^^",
"^^^^==6PSNZAAIILILLLLLILILLLIc  JLLILILIPPLIv  GPLLPKLLLLLILLIILIKILILLIIKLIIILLG   0LILILLILLIILPLL,  +ILLLLLILLPKAACNHZ===^^^^",
"^^^^==3PZBDADIKILILLLILILIILLD  fILLLLLILILI4 =KIIIKIIIKLLLIIKIIKIIIKIIKIIIKIIIKG   8PPPKKIIILLKILLI2  +LILLILKILIKCCZNHC:==^^^^",
"^^^^==4LABZADKILLLLLLLLLLLLLLL8 oCLILLLLLLLl  hIKKIIKKIILIKLIIKKIKIKIIKIIKIKIKKIG   8PPKIPIKLILIKILL:  +LLLLLLIIIKKGDZNHZ-==^^^^",
"^^^^==4PDBDDDIKILLLLLLLLLLLLLLG@ *BLLLILLLl+ 2IKIKIKIKLLIKKIKLLIKIKIIKKIKIKIIKIKG   8PPPKIKILLLLLILL2  +LLLLLKIKILKCDCNHZ--=^^^^",
"^^^^==4LSMDDDKIKLLLKIKLLKLLKLLLv  oyCKKHM6..@CIKKIIKKILLLLIKIKIKIKIKKKIKIKIKKIKIG   0PKPKKIKLKLLLKKI2  +LLLLLLKIKLKGDZNHZ-==^^^^",
"^^^^==4PSBDGGKKIKIKKLKLLLLLLKLKLm%   o$ .  2CUIIKKIKLKLLKKIKIKKLKKKIKIKIKIKIIKIKG   8IIKIKLKLLLLLKKI:. +IKLLLLLLLLKCHCNGZ===^^^^",
"^^^^==4LCBDDGIKKKLKILKLKKLKDBLLKKHq+     #hKKKKKnKIKLKKKIKIKLKIKKIKIKKIKKKKKKKIKF   qKKLKKLKLKKLKIKK:. +KKLKKLKKLKHGKCBHZ===^^^^",
"^^^^==4LAMGGGKKIIKKKKLKLKKD%oNLKKIKLCcfcCLKKKKKh.6KKKLLKKLKKKLKLKIKKIKKKIKIKKIKKG   8KLKIKIKKKLLLKKL:  +LLKLLKKLKLKGHCCHZ===^^^^",
"^^^^==4ISBFGHKKKKKKILKKKLD% .oAKKKKKKKKLIKLKKKc ..6KLKKLKLKKLKKKKKKKKKKIKKKKKKKKF   qKKKKKKKKLKKLKKL:  +KKKKLKLKKKKGHCBKZ===^^^^",
"^^^^==3LDBGGHKKKKKKKKKIKC=   yKKKKKLKLKKKKKKLKH2   6KKKKKKLKKLKKKKKKKKKKKKKKKIKKKX. 8KKKKKKKKKKKKLKK>  +KKKKKLKKKKJJJAMJZ===^^^^",
"^^^^==3LCNGKHKKKKKKKKKKK:   yKKKKKKKKKKKKKKKKKKG2  .yKKKKKKKKKKKKKKKKKKKKKKKKKKKCX. 8KKKKKKKKKKKKKKK:  @KKKKKKKKKJJJJANGZ===^^^^",
"^^^^==6IDBHKKKKKKKKKKKKKN+ yKKKKKKKKZ88qKKKKKKKKG2 2CKKKKKKKKKKKKKKKKKKKKKKKKKKKCo .8KKKKKKKKKKKKKKK2 .+KKKKKKKKKKJJJANJZ===^^^^",
"^^^^==3LCNHKKKHKKKKKKKKKKNyKKKKKKKKKn  XHKKKKKKKGGqCIKKKKKKHKKKKKKKKKKKGKKKKKKKKHyyyzKKKKKKKKKKKKKKKjyyfKKKKHKKKKKJJJAMJZ===^^^^",
"^^^^==6LCCIKKKKKKKKKKKKKKKHKHKKKKKKKm  XKHKKKKHKHKKKKKKKKKKKKKHKKKKKKKKKKKHKKKKKKKKKKKKKKKKKKKHKKKKKKHHKKKKKKKKKKKJKJSNHZ===^^^^",
"^^^^==4LCNKLKGKKGKGKGKKGKHKHKKHKHKHHm  XKKHKHHKKKKHKKKKKHKHKHHKKKKKKGKKKKGKKKKKHHKHKHKHHKKKHKKKHKHKHHKGKHKHKHHHKJKKKLDNHZ===^^^^",
"^^^^==4LGNKKIGKGKKKGGKKGKKKKHKKHKHHKn  XHHHKKHKHHKKHKHHHKHHKKHHHKGGKGKKGGKHKKKHKKHKKHKHKHKHKKGHKHHKKKKGKKKHHKKHHJJKPLDNHZ===^^^^",
"^^^^==4PCBKILKKGKGKGKKGKGKGHHHHKHHHHm  .KHHHHKKHHHHHHHKHHKHHKHHGGKKGKKGKGKKHGHHHHHHHHHKGKGKGHKHHHKHHHHKHHHHKHHHKHHJPLDNHZ===^^^^",
"^^^^==4LSNLPPHHHHHHHHHHHHHKHHHHHKHHKGnnnHHKGKKGKHHKHHHHHHHHHKGHKKGKGGKGKHHHKHHHHHHHHHKHHKHHHHHHKHHHHHHHHKHKHHHHJHHKIPDBJV;==^^^^",
"^^^^==4LSNJIPJHHHHHHHHHHHHHHGKHHHHHHHHHHHHHHGHGGHHHHHHHHHHHHHGKGKGGKKGGGHHHHHHHHHHHHHHHHHHHHHHHHHHHHHHHHGHGHHHHHHHKIPZBHZ===^^^^",
"^^^^==4LSNFIIKHHHHHHHHHHHHHHKGHHHHHHGHGHHGHHGKKGHHHHHHHHHHHHGKKGGGGGGGKGHHHHHHGHHHHHHGHHKGGKHHGGHHHHHHHHGKGHHHHHHHIIUBMHZ===^^^^",
"^^^^==4PSMSUULHHHGHGHHHGGHHHGHGGGHGHHHHGHHHGGHGGHGHGHGHHHHHHHGGHGKGKKKGGGHHGHHHHGHHGHHHHGHGGHHHHHHGHHHHGGGHHHHGHHHIUPBBJZ;==^^^^",
"^^^^==3PDNVUUUJGGHGHFHHHGHGGGGGGHGGGGGGGGHGGGHGHGGHHGJGGGGGGGGGGGGGGGGGGGGHHGHGGGGGGGGHGGGGGHHGGGGHGGHGHGGKGHGGHGKUUJBBJC===^^^^",
"^^^^==4LFMBJUUPGGGGGHHDHGGGGGGGGGGGGGGGGGGGGGGGGGGGGGGGGGGGGGGGGGGGGGGGGGGGGGGGGGGGGGGGGGGGGGGGGGGGGGGGGGGGGGGGGHUUUZBMLZ===^^^^",
"^^^^==:LJBBVUYYPGGGGFHHHGGGGGGGGGGGGGGGGGGGGGGGGGGGGGGGGGGGGGGGGGGGGGGGGGGGGGGGGGGGGGGGGGGGGGGGGGGGGGGGGGGGGHGFHUTTJBMVPV===^^^^",
"^^^^==-LLCBIPYRYUHGFGGFFGGGGGGGGGGGGGGGGGGGGGGGGFGGGGGGFGGGGGGGGGGGGGGGGGGGGGGGGGGGGGGGGGGGGGGGGGGGGDGGGGGGGFGJYTTUTDBDPm===^^^^",
"^^^^===DPDLEEIRRRYIPJHGJHHHHHHHHHHHHHHHHHHHHHHHHGGKGJGHHHJGJHHHHKGGKHHHHHHHHGGHGGGKGHHCHHHGHGHHGGHHHHHHHHHHJPYRRRYYWRDLLk===^^^^",
"^^^^===cPRWREEYIRRRRRRRRTRTRTRRRRRRRTRTRRTRTTRRTRRTRRRRRRYRTRRTRUTTTRRTRTRRTRRRRRRRTRRQERRRRRRRRRRRRRTTRRRRRRRRRPRRWRWULq===^^^^",
"^^^^===eYQQEEERJJYRRRRYRRRRTRRRRTRRRRTRRRTTTRRTRTRRTTRRRRYTRTRTTRRTTTRTTRRRTRREIRTRRRRTTRRTRRRTTRRRRRRRRRRRRRRPSYEWRQQQH;==^^^^^",
"^^^^===-U!!QEERZNNCSJJJLLJLJLJKKJKKKKLKKKLLKKLKLJLKKLJLJJLKLKLJPKLKKLKKKKLKKLKKKKLKKKKKKKLKKKKKKKKKKLKKKJLJGABBNJEWRQQQm===^^^^^",
"^^^^^===wQ!QEERNNNNNNNNNMNNNNNNNBNNNNNNNNNNNBNNNVMNNNNNNNNNNNNNNCNNNNNNNCNNNNNNNCCNNNNNNCVMMNNNNNNNNNNNNNNNNNNNNSEEQQQU:===^^^^^",
"^^^^^===;MQ!!QJNNNNNNNNNBNNNNNNNNNNNNNNNNNNNBMNNNNNNNNNNNNNNNNNNNNNNNNNNNNNNNNNNCMNNNNNNnVVMNNNNNNNNNNNNNNNNNNNNNEQQQQe===^^^^^^",
"^^^^^^==*;LQQQYSNNNNNNNNMBNNNNNNNNNNNNNNNNNNNNNNVNNNNNNNNNNNNNNMNNNNNNNNNNNNNNNNnCMNNNNNVVnVNNNNNNNNNNNNNNNNNNMVFEQQQv====^^^^^^",
"^^^^^^^=--;MQQPLLGSZCCCCCCVVCCCCCCCCCCCCCCCCCCCCCCCVCCCCCCCVCCVVCCCCCCCCCCCCCCCCCCCCCCCCCCCCCCCCCCCCCCCCCCCCZDHLPYQEs====^^^^^^^",
"^^^^^^^=====uJLPPPPPPPLPLPPPPPPPLPLPLPPPKPPKLPLPLPPPKPPPLPLPLPPPPLPPLPPPPPPPLPPPPKPPLPPPPPPPPPPPPPPPPKPPLPLKPPPPPPF2====^^^^^^^^",
"^^^^^^^^=====-evSHPLLLPLPLPPKPPKPPPLPLPPPPPPPPPLPLPPPPPKPPPLPLPPKPLPPLPPPPKPPLPPPPPPPLPPPKPPPKPPPPPPPPPPPPPPPPHCj6--===^^^^^^^^^",
"^^^^^^^^^^========-<3323<33233<32332<32323<33223<33233<32332<23233232222<223<2222322<222<3232222<22222<22322<-====--==^^^^^^^^^^",
"^^^^^^^^^^^=======--==-=====-=====-===-=-=====-===-=-=====-===--====--==--=---==--=---==--==--====--:====--=========^^^^^^^^^^^^",
"^^^^^^^^^^^^^===========================================================-===========================-=============^^^^^^^^^^^^^^",
"^^^^^^^^^^^^^^^^^^^^^^^^^^^^^^^^^^^^^^^^^^^^^^^^^^^^^^^^^^^^^^^^^^^^^^^^^^^^^^^^^^^^^^^^^^^^^^^^^^^^^^^^^^^^^^^^^^^^^^^^^^^^^^^^",
"^^^^^^^^^^^^^^^^^^^^^^^^^^^^^^^^^^^^^^^^^^^^^^^^^^^^^^^^^^^^^^^^^^^^^^^^^^^^^^^^^^^^^^^^^^^^^^^^^^^^^^^^^^^^^^^^^^^^^^^^^^^^^^^^",
"^^^^^^^^^^^^^^^^^^^^^^^^^^^^^^^^^^^^^^^^^^^^^^^^^^^^^^^^^^^^^^^^^^^^^^^^^^^^^^^^^^^^^^^^^^^^^^^^^^^^^^^^^^^^^^^^^^^^^^^^^^^^^^^^",
"^^^^^^^^^^^^^^^^^^^^^^^^^^^^^^^^^^^^^^^^^^^^^^^^^^^^^^^^^^^^^^^^^^^^^^^^^^^^^^^^^^^^^^^^^^^^^^^^^^^^^^^^^^^^^^^^^^^^^^^^^^^^^^^^",
"^^^^^^^^^^^^^^^^^^^^^^^^^^^^^^^^^^^^^^^^^^^^^^^^^^^^^^^^^^^^^^^^^^^^^^^^^^^^^^^^^^^^^^^^^^^^^^^^^^^^^^^^^^^^^^^^^^^^^^^^^^^^^^^^",
"^^^^^^^^^^^^^^^^^^^^^^^^^^^^^^^^^^^^^^^^^^^^^^^^^^^^^^^^^^^^^^^^^^^^^^^^^^^^^^^^^^^^^^^^^^^^^^^^^^^^^^^^^^^^^^^^^^^^^^^^^^^^^^^^",
"^^^^^^^^^^^^^^^^^^^^^^^^^^^^^^^^^^^^^^^^^^^^^^^^^^^^^^^^^^^^^^^^^^^^^^^^^^^^^^^^^^^^^^^^^^^^^^^^^^^^^^^^^^^^^^^^^^^^^^^^^^^^^^^^",
"^^^^^^^^^^^^^^^^^^^^^^^^^^^^^^^^^^^^^^^^^^^^^^^^^^^^^^^^^^^^^^^^^^^^^^^^^^^^^^^^^^^^^^^^^^^^^^^^^^^^^^^^^^^^^^^^^^^^^^^^^^^^^^^^",
"^^^^^^^^^^^^^^^^^^^^^^^^^^^^^^^^^^^^^^^^^^^^^^^^^^^^^^^^^^^^^^^^^^^^^^^^^^^^^^^^^^^^^^^^^^^^^^^^^^^^^^^^^^^^^^^^^^^^^^^^^^^^^^^^",
"^^^^^^^^^^^^^^^^^^^^^^^^^^^^^^^^^^^^^^^^^^^^^^^^^^^^^^^^^^^^^^^^^^^^^^^^^^^^^^^^^^^^^^^^^^^^^^^^^^^^^^^^^^^^^^^^^^^^^^^^^^^^^^^^",
"^^^^^^^^^^^^^^^^^^^^^^^^^^^^^^^^^^^^^^^^^^^^^^^^^^^^^^^^^^^^^^^^^^^^^^^^^^^^^^^^^^^^^^^^^^^^^^^^^^^^^^^^^^^^^^^^^^^^^^^^^^^^^^^^",
"^^^^^^^^^^^^^^^^^^^^^^^^^^^^^^^^^^^^^^^^^^^^^^^^^^^^^^^^^^^^^^^^^^^^^^^^^^^^^^^^^^^^^^^^^^^^^^^^^^^^^^^^^^^^^^^^^^^^^^^^^^^^^^^^",
"^^^^^^^^^^^^^^^^^^^^^^^^^^^^^^^^^^^^^^^^^^^^^^^^^^^^^^^^^^^^^^^^^^^^^^^^^^^^^^^^^^^^^^^^^^^^^^^^^^^^^^^^^^^^^^^^^^^^^^^^^^^^^^^^",
"^^^^^^^^^^^^^^^^^^^^^^^^^^^^^^^^^^^^^^^^^^^^^^^^^^^^^^^^^^^^^^^^^^^^^^^^^^^^^^^^^^^^^^^^^^^^^^^^^^^^^^^^^^^^^^^^^^^^^^^^^^^^^^^^",
"^^^^^^^^^^^^^^^^^^^^^^^^^^^^^^^^^^^^^^^^^^^^^^^^^^^^^^^^^^^^^^^^^^^^^^^^^^^^^^^^^^^^^^^^^^^^^^^^^^^^^^^^^^^^^^^^^^^^^^^^^^^^^^^^",
"^^^^^^^^^^^^^^^^^^^^^^^^^^^^^^^^^^^^^^^^^^^^^^^^^^^^^^^^^^^^^^^^^^^^^^^^^^^^^^^^^^^^^^^^^^^^^^^^^^^^^^^^^^^^^^^^^^^^^^^^^^^^^^^^",
"^^^^^^^^^^^^^^^^^^^^^^^^^^^^^^^^^^^^^^^^^^^^^^^^^^^^^^^^^^^^^^^^^^^^^^^^^^^^^^^^^^^^^^^^^^^^^^^^^^^^^^^^^^^^^^^^^^^^^^^^^^^^^^^^",
"^^^^^^^^^^^^^^^^^^^^^^^^^^^^^^^^^^^^^^^^^^^^^^^^^^^^^^^^^^^^^^^^^^^^^^^^^^^^^^^^^^^^^^^^^^^^^^^^^^^^^^^^^^^^^^^^^^^^^^^^^^^^^^^^",
"^^^^^^^^^^^^^^^^^^^^^^^^^^^^^^^^^^^^^^^^^^^^^^^^^^^^^^^^^^^^^^^^^^^^^^^^^^^^^^^^^^^^^^^^^^^^^^^^^^^^^^^^^^^^^^^^^^^^^^^^^^^^^^^^",
"^^^^^^^^^^^^^^^^^^^^^^^^^^^^^^^^^^^^^^^^^^^^^^^^^^^^^^^^^^^^^^^^^^^^^^^^^^^^^^^^^^^^^^^^^^^^^^^^^^^^^^^^^^^^^^^^^^^^^^^^^^^^^^^^",
"^^^^^^^^^^^^^^^^^^^^^^^^^^^^^^^^^^^^^^^^^^^^^^^^^^^^^^^^^^^^^^^^^^^^^^^^^^^^^^^^^^^^^^^^^^^^^^^^^^^^^^^^^^^^^^^^^^^^^^^^^^^^^^^^",
"^^^^^^^^^^^^^^^^^^^^^^^^^^^^^^^^^^^^^^^^^^^^^^^^^^^^^^^^^^^^^^^^^^^^^^^^^^^^^^^^^^^^^^^^^^^^^^^^^^^^^^^^^^^^^^^^^^^^^^^^^^^^^^^^",
"^^^^^^^^^^^^^^^^^^^^^^^^^^^^^^^^^^^^^^^^^^^^^^^^^^^^^^^^^^^^^^^^^^^^^^^^^^^^^^^^^^^^^^^^^^^^^^^^^^^^^^^^^^^^^^^^^^^^^^^^^^^^^^^^",
"^^^^^^^^^^^^^^^^^^^^^^^^^^^^^^^^^^^^^^^^^^^^^^^^^^^^^^^^^^^^^^^^^^^^^^^^^^^^^^^^^^^^^^^^^^^^^^^^^^^^^^^^^^^^^^^^^^^^^^^^^^^^^^^^",
"^^^^^^^^^^^^^^^^^^^^^^^^^^^^^^^^^^^^^^^^^^^^^^^^^^^^^^^^^^^^^^^^^^^^^^^^^^^^^^^^^^^^^^^^^^^^^^^^^^^^^^^^^^^^^^^^^^^^^^^^^^^^^^^^",
"^^^^^^^^^^^^^^^^^^^^^^^^^^^^^^^^^^^^^^^^^^^^^^^^^^^^^^^^^^^^^^^^^^^^^^^^^^^^^^^^^^^^^^^^^^^^^^^^^^^^^^^^^^^^^^^^^^^^^^^^^^^^^^^^",
"^^^^^^^^^^^^^^^^^^^^^^^^^^^^^^^^^^^^^^^^^^^^^^^^^^^^^^^^^^^^^^^^^^^^^^^^^^^^^^^^^^^^^^^^^^^^^^^^^^^^^^^^^^^^^^^^^^^^^^^^^^^^^^^^"
};
