/* XPM */
static char *gpomme_96x96[] = {
/* columns rows colors chars-per-pixel */
"96 96 79 1",
"  c #2E3436",
". c #303638",
"X c #33393B",
"o c #383E40",
"O c #3D4344",
"+ c #404646",
"@ c #424749",
"# c #43494A",
"$ c #4A4F50",
"% c #4E5253",
"& c #545653",
"* c #515658",
"= c #565854",
"- c #55595A",
"; c #595B57",
": c #5A5E5C",
"> c #5E605C",
", c #5C6061",
"< c #616464",
"1 c #666864",
"2 c #666A6A",
"3 c #696C6A",
"4 c #6B6F70",
"5 c #6E706C",
"6 c #6E7271",
"7 c #727472",
"8 c #757876",
"9 c #757979",
"0 c #7A7D7B",
"q c #7E807C",
"w c #7F8282",
"e c #81837F",
"r c #828584",
"t c #868989",
"y c #898B87",
"u c #8A8D8B",
"i c #8E908E",
"p c #8E9190",
"a c #929493",
"s c #969895",
"d c #989A96",
"f c #9B9D9C",
"g c #9DA09C",
"h c #A1A29C",
"j c #A5A6A2",
"k c #A6A8A5",
"l c #A7A9A8",
"z c #A9AAA5",
"x c #ABADA9",
"c c #AEB0AC",
"v c #AFB1B0",
"b c #B1B2AD",
"n c #B3B4B1",
"m c #B6B8B2",
"M c #B9BCB6",
"N c #BCBEB9",
"B c #BEC0BB",
"V c #C0C2BD",
"C c #C4C5C1",
"Z c #C5C8C2",
"A c #C8C9C5",
"S c #CCCCC9",
"D c #CED0CB",
"F c #D3D3CE",
"G c #D6D6D0",
"H c #D6D8D3",
"J c #D9DAD5",
"K c #DDDDDA",
"L c #DEE0DD",
"P c #E1E1DD",
"I c #E5E5E2",
"U c #E7E8E6",
"Y c #E8E8E6",
"T c #EBEBE9",
"R c #EFF0EE",
"E c #F0F0EF",
"W c #F4F5F4",
"Q c gray100",
"! c None",
/* pixels */
"!!!!!!!!!!!!!!!!!!!!!!!!!!!!!!!!!!!!!!!!!!!!!!!!!!!!!!!!!!!!!!!!!!!!!!!!!!!!!!!!!!!!!!!!!!!!!!!!",
"!!!!!!!!!!!!!!!!!!!!!!!!!!!!!!!!!!!!!!!!!!!!!!!!!!!!!!!!!!!!!!!!!!!!!!!!!!!!!!!!!!!!!!!!!!!!!!!!",
"!!!!!!!!!!!!!!!!!!!!!!!!!!!!!!!!!!!!!!!!!!!!!!!!!!!!!!!!!!!!!!!!!!!!!!!!!!!!!!!!!!!!!!!!!!!!!!!!",
"!!!!!!!!!!!!!!!!!!!!!!!!!!!!!!!!!!!!!!!!!!!!!!!!!!!!!!!!!!!!!!!!!!!!!!!!!!!!!!!!!!!!!!!!!!!!!!!!",
"!!!!!!!!!!!!!!!!!!!!!!!!!!!!!!!!!!!!!!!!!!!!!!!!!!!!!!!!!!!!!!!!!!!!!!!!!!!!!!!!!!!!!!!!!!!!!!!!",
"!!!!!!!!!!!!!!!!!!!!!!!!!!!!!!!!!!!!!!!!!!!!!!!!!!!!!!!!!!!!!!!!!!!!!!!!!!!!!!!!!!!!!!!!!!!!!!!!",
"!!!!!!!!!!!!!!!!!!!!!!!!!!!!!!!!!!!!!!!!!!!!!!!!!!!!!!!!!!!!!!!!!!!!!!!!!!!!!!!!!!!!!!!!!!!!!!!!",
"!!!!!!!!!!!!!!!!!!!!!!!!!!!!!!!!!!!!!!!!!!!!!!!!!!!!!!!!!!!!!!!!!!!!!!!!!!!!!!!!!!!!!!!!!!!!!!!!",
"!!!!!!!!!!!!!!!!!!!!!!!!!!!!!!!!!!!!!!!!!!!!!!!!!!!!!!!!!!!!!!!!!!!!!!!!!!!!!!!!!!!!!!!!!!!!!!!!",
"!!!!!!!!!!!!!!!!!!!!!!!!!!!!!!!!!!!!!!!!!!!!!!!!!!!!!!!!!!!!!!!!!!!!!!!!!!!!!!!!!!!!!!!!!!!!!!!!",
"!!!!!!!!!!!!!!!!!!!!!!!!!!!!!!!!!!!!!!!!!!!!!!!!!!!!!!!!!!!!!!!!!!!!!!!!!!!!!!!!!!!!!!!!!!!!!!!!",
"!!!!!!!!!!!!!!!!!!!!!!!!!!!!!!!!!!!!!!!!!!!!!!!!!!!!!!!!!!!!!!!!!!!!!!!!!!!!!!!!!!!!!!!!!!!!!!!!",
"!!!!!!!!!!!!!!!!!!!!!!!!!!!!!!!!!!!!!!!!!!!!!!!!!!!!!!!!!!!!!!!!!!!!!!!!!!!!!!!!!!!!!!!!!!!!!!!!",
"!!!!!!!!!!!!!!!!!!!!!!!!!!!!!!!!!!!!!!!!!!!!!!!!!!!!!!!!!!!!!!!!!!!!!!!!!!!!!!!!!!!!!!!!!!!!!!!!",
"!!!!!!!!!!!!!!!!!!!!!!!!!!!!!!!!!!!!!!!!!!!!!!!!!!!!!!!!!!!!!!!!!!!!!!!!!!!!!!!!!!!!!!!!!!!!!!!!",
"!!!!!!!!!!!!!!!!!!!!!!!!!!!!!!!!!!!!!!!!!!!!!!!!!!!!!!!!!!!!!!!!!!!!!!!!!!!!!!!!!!!!!!!!!!!!!!!!",
"!!!!!!!!!!!!!!!!!!!!!!!!!!!!!!!!!!!!!!!!!!!!!!!!!!!!!!!!!!!!!!!!!!!!!!!!!!!!!!!!!!!!!!!!!!!!!!!!",
"!!!!!!!!!!!!!!!!!!!!!!!!!!!!!!!!!!!!!!!!!!!!!!!!!!!!!!!!!!!!!!!!!!!!!!!!!!!!!!!!!!!!!!!!!!!!!!!!",
"!!!!!!!!!!!!!!!!!!!!!!!!!!!!!!!!!!!!!!!!!!!!!!!!!!!!!!!!!!!!!!!!!!!!!!!!!!!!!!!!!!!!!!!!!!!!!!!!",
"!!!!!!!!!!!!!!!!!!!!!!!!!!!!!!!!!!!!!!!!!!!!!!!!!!!!!!!!!!!!!!!!!!!!!!!!!!!!!!!!!!!!!!!!!!!!!!!!",
"!!!!!!!!!!!!!&&&&&&&&&&&&&&&&&&&&&&&&&&&&&&&&&&&&&&&&&&&&&&&&&&&&&&&&&&&&&&&&&&&&&&!!!!!!!!!!!!!",
"!!!!!!!!!&&&&&&&&&&&&&&&&&&&&&&&&&&&&&&&&&&&&&&&&&&&&&&&&&&&&&&&&&&&&&&&&&&&&&&&&&&&&&&!!!!!!!!!",
"!!!!!!!&&&&&&&&&&&&&&&&&&&&&&&&&&&&&&&&&&&&&&&&&&&&&&&&&&&&&&&&&&&&&&&&&&&&&&&&&&&&&&&&&!!!!!!!!",
"!!!!!!&&&&8hMFGFDDDDDDDSDDDDDDDDDDDSDDDDDDDSDDDDSDDDDDDDDDDDDDDSDDDDDDDFSDDDDDDDFHSbs1&&&&!!!!!!",
"!!!!!&&&5kJFMchhhhhhhhhhhhhhhhhhhhhhhhhhhhhhhhhhhhhhhhhhhhhhkhhhhhhhhhhhhhhhhhhhkzcVHFd>&&&!!!!!",
"!!!!&&&eQTZxhhhhhhhhhhhhhhhhhhhhhhghhhhhhhhhhhhhhhhhhhhhhhhhhghhhhhhhhhhhhhhhhhhghhhbFWU<&&!!!!!",
"!!!!&&:ZPWchhbVGKKJJJJJJKJJJJJJJJJJJJJKJKJJKJJJKKJJJJJJJJJKJKJJJKJKJJKJJJJJKJJJJDVzhhZTLz&&&!!!!",
"!!!&&&gKVxhkFTRTTTTTTTRTTTTRRTTTYTRTTRTTTTTTTRTTTTTRTTRTTTTTTTTTTTTTTTTTTTTRTTTRTTYVhhbSJ0&&!!!!",
"!!!&&1JSbjhPTTTTTTTTTTTTTTTTTTTTTTTTTTTTTTTTTTTTTTTTTTTTTTTTTTTTTTTTTRTTTTTTTTTTTTTTZjjMJA&&&!!!",
"!!!&&yKMxjVTTTTTTTTTTTTTTTTTTTTTTTTTTTTTTTTTTTTTTTTTTTTTTTTTTTTTTTTTTTTETTTTTTTTTTTTTbhcVK:&&!!!",
"!!!&&kHMzzPYTTTTTYTYTTYTTYTTTTYTTTYTYTTTTYTTTTTTTRTTTYYTYTTTTYTTYTPTTPTPTTTTTYTYTTYTYFxcMK0&&!!!",
"!!!&&BDmzbTTTYYYYTYTTTYYYTYYPYTYPTTYTYTYTYYYYYRPTPTTTYTYTYYTYTYTTTRTTRTRPRPTYTYTYTYYYPzzMJf&&!!!",
"!!!&&SAncNYYYYYYYYYYYYYYYYTf XYYTTYYYYYYYYYYYYYYYYYYYYYYYYYYYYYYYYYYYYYYYYYYYYYYYYYYYYllMFx&&!!!",
"!!!&&SCncNYYYYYYYIYYYYYYYYYf XYYPTYTYYPYYIYYYYYYYIYYYYYYYYYYYYYYYYYYYYYYYYYYYYYYYYYYYYccMDc&&!!!",
"!!!&&SAncVYYYIYIYYYYYIYIYYYf XYYTTPTYYTTYYYYYYYYYYYYYYYYIYYYYYYYYYYYYYYYYYIYYYYYYYYYYYbcMSc&&!!!",
"!!!&&SAnvVIYIYYIYIIpHYYYIYIf .IYPTTPPcVPYIYYPYIYIYIIIYIYIYIIPYYPIYIIIIIYIIYIIYIYIIIYIYbbMSc&&!!!",
"!!!%&SCmnCIIIIIIII0.%HYIIIYSllIIIIIIz.oVYIIPYPIIIIIIIYIIIIIIV%*%*%*%&eII,--**,IIYIIIIInnMSb&%!!!",
"!!!&&SCmnCIIIIIIIIp  %GIIIIIIIIYIIYj. #SIIIYIYIYYIYIIIIYIYIIn    .   3IIo    oIIIIIIYInnMDc&&!!!",
"!!!%&SAnnCIIIIIIIIIp  pPIIIIIIPIIIP# @SPYIIYIIIIPYPYPIIIIIIIn  ,rrtrrjIItttO oPYIIIIIImmMSx&&!!!",
"!!!&&SAnNCIIIPIIIIIIpwPYPPvu39fSIIPS-SIIPIPPIPIPIPIPIIPIIIPPn  pIIPIIPIIIPP* oIPIIIIIImNMDc&&!!!",
"!!!&&SCMNCIIIPIPPIIPIPPIA;     .uPIPIIIIIIIIYPIYIIIIPIPPIPIPn  iYPPIIPIPIPP&.oIIPPIPIPNNNFc&&!!!",
"!!!&&ACMNAIPIPIPIPIPPPPNX.qmJFk$ ,PPPPPPPPPPPPPPPPPPIIPIIPIPv  pPIIPIPIPPPP& oPPPIPIPINNnSc&%!!!",
"!!!&=SCNNSPPPPIPPPPIPPK$XbPPPPPP6 aPPPLIPPPPPPPPPPPIPPPPPPPPv  iPPPPPPPPPPP& oIPPPPIPPVNNSc&&!!!",
"!!!%&SZNVSPPPPPPPPPPPPp.yPPPPPPPH#XGPPLPPIPPPPPPPPPPPPPPPPIPc  iPPPPPPIPPPK& oPPPPPPPPVVNSc&%!!!",
"!!!&&SZNVSPPPPJSASSKPP<oKPPPPPPPPa vKIHSSSSPPPPPPPPPPPPPPPPPc  <iiiufPPPPPP% oKPPPPPPPCVNSb&&!!!",
"!!!&&SVVCSPKKPl    GPKo%KPKPKPKPPn uKKt   #KKPPKPPKPKPKPPKPPc       %KPKPPP% oPKPPPKPKCCNSb&%!!!",
"!!!&&SZVCSKPPKl    GKKo-KPKPPKPKKN tPPt   #LPPPPPPPKPKKPKPPKv  o@@@@<PKPPKP% oKPKPPPKPCCNSb&&!!!",
"!!!&&SZVAFKKPKFnvnvKPK:oKPKKPKKKKs lKKAnnnMLKKKKKKKPKPKPKKKKc  uKPPKKPPKKPP% OKKKKKKPKAANSb&&!!!",
"!!!&&SZVSFKKKKKKPJPJPJe.dPJPKKKKG& FPJKKPJKKKKKPKKKKKKKKKKKKz  eKKKKKKKKKPK& oKKKKKKKKSSMDc&&!!!",
"!!!&&SVVAFKKKKKJPJJPJPG+oNPJKKKKq ePJPJPJPJPJPJJKKKKKKKKKKKKb  aKKKKKKKKKKJ& oKKKKKKKKSSVDc&&!!!",
"!!!&&SZVSFKKKKKKKKJPPPJz.XeFKJm> &GKPJKJPJPJPJKKKKKJKKKKKKKKb  eKKJPKKJKKJJ& oKKKKKKKJSSMDc&&!!!",
"!!!&&FZVDGJKJJKJJPJJJJJKb+..OX  8VPJKJKKKJJJPJKJJKJKJKJKJKJKz  aKJKJJKKJJJJ& oJKJKJKJKDDVDx&&!!!",
"!!!&&SZVFGJKKKKJJJKJzeJJKFd5&>ebKKKV1FJJJPJJKJKKKJJKJJKJKKJKz  yJKJKKKJKJKJ& XKJJKJKJKFDMDc&&!!!",
"!!!&&SZZFGJJJJJJJJJho+eJJJJPJJJJJJG= &SGJJJJKJJJKJJKKJJKJJJJb .yJKJJJJJJJJG& oJJJJJJKJFFNDc&&!!!",
"!!!&&SVZGGJJJJKJJJh. +VJJJJPJJKJKJKe  &FJJPJJJJJJJJJJJJJJJJJz .yJJJKJJJJJKJ& oJJJJJJJJFFVDc&&!!!",
"!!!&&SZZHHJJJJJJJJ1.+VJJJJJVmmJJJJJPe  bJJJJJJJJJJJJJJJJJJJJz .yJJJJJJJJJJJ& oJJJJJJJJGFBDc&&!!!",
"!!!&&SZAJHJJHJJJJJF5VJJGJJJd XJJJJJJJezKJGJJGJJJGJGJJJGJJJJJM55zJJGJJJJGJJJr48JGJJJJGJGJBFx&&!!!",
"!!!&&SZAJJJJJGGGJJJGJJJJGJJh oGJGGGJGJJJJJGJJGJGJJJJGGJJJJJJJGJJJJJGJGJGGGJGJJJJJJJJJJJJBSx&&!!!",
"!!!&&SCAKJHHGJJGJGJJJJGJJGJe XJGJJGGGJGJJGJGGGJJGJJGJGJGGJGGJJJGJGJJGJJJJGJJGJGJGJGGJGKKVSc&&!!!",
"!!!&&SCAKKHGGGJGGGGGGGGGJGPe XGGGGGJJGGGGGGJGJGGGGGJGGGGGGGJFFJGGGGGGGGGJGGGGGGGGGGJGGKKVDc&&!!!",
"!!!&&SCSPKGGGGGGGGGGGGGGGGGFNNGGGGGGGGGGGGGGGGGGGJGGJGGGGGGGGFGGGGGGGGGGGGGGGGGGGGGGGGPPVSc&&!!!",
"!!!&&SCCPPGGGGGGGGGGGGGGGFFFGFGFGGGGGGGGGGGGGGGGGGGGGGGGGGGGFJGGGFGGFGGGGGGGGGGGGGGGGJPPMDc&&!!!",
"!!!&&SCNPPGGGFGGGFFGGGGGFGFGGGGGGGGFGFGGGFGFGFGFGGGFGFGFGFFGFGGGGGFGGGGFGGGGGFGGGGGFGJPJMDx&&!!!",
"!!!&&SSNKIKGFGFGGFGFGFFGFGFFGFFFFFFGFGFGFGFGFGGFFFGFFGFGFGGFGFGFFGFGFFGFFFGGGFFFGFFGGIUSMHc&&!!!",
"!!!&&AFMZUUHFFFFFFFFGGDFFFFFFFFFFFFFFFFFFFFFFFFFFFFFFFFFFFFFFFFFFFFFFFFFFFFFFFFFFFFFKULNNKz&&!!!",
"!!!&&nKMDKUUKFGDFFDFDFFFDFFFFFFFFFFFFFFFFFFFFFFFFFFFFFFFFFFFFDFFFFDFFFFFFFFFFFFDFFGPUULZBKi&&!!!",
"!!!&=dKFRRPYYUIKJJJKKJKKKJKJJJJJJJJHJJJJHLLHLHGLGLHJJJJJJLLHHJJJJJKKJJJJJJJJJJKKKIUYUIRRDL4&&!!!",
"!!!&&qPWRRRLUTYYTYTTTYUTTYYTTTTYTTTYYTTTYTYYTYTTYYTTTTYTYYYUTTTTYTYYTTTTTTTUTYUTTTTPIRREWK=*&!!!",
"!!!&&;RWWERFBZFJLLKKKKKKKKKKLKKKFJLHLLLLLLLLLLJLKLKLPKKKLLLLLLLLKKIKLKKKLLLLLKLKHDZMITTWWD&&&!!!",
"!!!&&&dWWWRVMMMMMMMMMBMMNMNMNNMMBBBBmBmmMMMMMmBMMMMMMMMMMMMMmMmBMMMMNMMMMMMMMMMMMMMMHTWWW2&&!!!!",
"!!!!&&=GWWRBMMBMMNNMMMMMMMMMMMMMmBBmBmBBMMMMMMMMMMMMMMMMMMMMMMBmMMMMMMMMMMMMMMMMMMMMSWWWj&&&!!!!",
"!!!!!&&-VWTLGSVVNNBBBBBBBBBBBBBBBBBBBBBBBBBBBBBBBBBBBBBBBBBBBBBMBBBBBBBBBBBBBBBMCZDHLEEj&&&!!!!!",
"!!!!!&&&&uAKLLJLJLLLLLLLLLLLLLLLLLLLLLLLLLLLLLLLLLKLKKKLLLLLLLLLLLKLLKLLLLLLKLLLKKKKKN5&&&!!!!!!",
"!!!!!!!&&&&:0fxxxxxxzxzzxxxxzzxzxzzzzzxxzxzxxxzxxxxxxzxxxxxzxzzxxxxxxxzxzxxkxxxxxzs5-&&&&!!!!!!!",
"!!!!!!!!&&&&&&&&&&&&&&&&*&&&&&&&&&&&&&&&&&&&&&&&&&&&&&&&&&&&&&&&&&&&&&&&&&&&&&&&&&&&&&&&!!!!!!!!",
"!!!!!!!!!!&&&&&&&&&&&&&&&&&&&&&&&&&%&&&&&&&&&&&%&&&&&&&&&&&&&&&&&&&&&&&&&&&&&&&%&&&&&!!!!!!!!!!!",
"!!!!!!!!!!!!!!!!!!!!!!!!!!!!!!!!!!!!!!!!!!!!!!!!!!!!!!!!!!!!!!!!!!!!!!!!!!!!!!!!!!!!!!!!!!!!!!!!",
"!!!!!!!!!!!!!!!!!!!!!!!!!!!!!!!!!!!!!!!!!!!!!!!!!!!!!!!!!!!!!!!!!!!!!!!!!!!!!!!!!!!!!!!!!!!!!!!!",
"!!!!!!!!!!!!!!!!!!!!!!!!!!!!!!!!!!!!!!!!!!!!!!!!!!!!!!!!!!!!!!!!!!!!!!!!!!!!!!!!!!!!!!!!!!!!!!!!",
"!!!!!!!!!!!!!!!!!!!!!!!!!!!!!!!!!!!!!!!!!!!!!!!!!!!!!!!!!!!!!!!!!!!!!!!!!!!!!!!!!!!!!!!!!!!!!!!!",
"!!!!!!!!!!!!!!!!!!!!!!!!!!!!!!!!!!!!!!!!!!!!!!!!!!!!!!!!!!!!!!!!!!!!!!!!!!!!!!!!!!!!!!!!!!!!!!!!",
"!!!!!!!!!!!!!!!!!!!!!!!!!!!!!!!!!!!!!!!!!!!!!!!!!!!!!!!!!!!!!!!!!!!!!!!!!!!!!!!!!!!!!!!!!!!!!!!!",
"!!!!!!!!!!!!!!!!!!!!!!!!!!!!!!!!!!!!!!!!!!!!!!!!!!!!!!!!!!!!!!!!!!!!!!!!!!!!!!!!!!!!!!!!!!!!!!!!",
"!!!!!!!!!!!!!!!!!!!!!!!!!!!!!!!!!!!!!!!!!!!!!!!!!!!!!!!!!!!!!!!!!!!!!!!!!!!!!!!!!!!!!!!!!!!!!!!!",
"!!!!!!!!!!!!!!!!!!!!!!!!!!!!!!!!!!!!!!!!!!!!!!!!!!!!!!!!!!!!!!!!!!!!!!!!!!!!!!!!!!!!!!!!!!!!!!!!",
"!!!!!!!!!!!!!!!!!!!!!!!!!!!!!!!!!!!!!!!!!!!!!!!!!!!!!!!!!!!!!!!!!!!!!!!!!!!!!!!!!!!!!!!!!!!!!!!!",
"!!!!!!!!!!!!!!!!!!!!!!!!!!!!!!!!!!!!!!!!!!!!!!!!!!!!!!!!!!!!!!!!!!!!!!!!!!!!!!!!!!!!!!!!!!!!!!!!",
"!!!!!!!!!!!!!!!!!!!!!!!!!!!!!!!!!!!!!!!!!!!!!!!!!!!!!!!!!!!!!!!!!!!!!!!!!!!!!!!!!!!!!!!!!!!!!!!!",
"!!!!!!!!!!!!!!!!!!!!!!!!!!!!!!!!!!!!!!!!!!!!!!!!!!!!!!!!!!!!!!!!!!!!!!!!!!!!!!!!!!!!!!!!!!!!!!!!",
"!!!!!!!!!!!!!!!!!!!!!!!!!!!!!!!!!!!!!!!!!!!!!!!!!!!!!!!!!!!!!!!!!!!!!!!!!!!!!!!!!!!!!!!!!!!!!!!!",
"!!!!!!!!!!!!!!!!!!!!!!!!!!!!!!!!!!!!!!!!!!!!!!!!!!!!!!!!!!!!!!!!!!!!!!!!!!!!!!!!!!!!!!!!!!!!!!!!",
"!!!!!!!!!!!!!!!!!!!!!!!!!!!!!!!!!!!!!!!!!!!!!!!!!!!!!!!!!!!!!!!!!!!!!!!!!!!!!!!!!!!!!!!!!!!!!!!!",
"!!!!!!!!!!!!!!!!!!!!!!!!!!!!!!!!!!!!!!!!!!!!!!!!!!!!!!!!!!!!!!!!!!!!!!!!!!!!!!!!!!!!!!!!!!!!!!!!",
"!!!!!!!!!!!!!!!!!!!!!!!!!!!!!!!!!!!!!!!!!!!!!!!!!!!!!!!!!!!!!!!!!!!!!!!!!!!!!!!!!!!!!!!!!!!!!!!!",
"!!!!!!!!!!!!!!!!!!!!!!!!!!!!!!!!!!!!!!!!!!!!!!!!!!!!!!!!!!!!!!!!!!!!!!!!!!!!!!!!!!!!!!!!!!!!!!!!",
"!!!!!!!!!!!!!!!!!!!!!!!!!!!!!!!!!!!!!!!!!!!!!!!!!!!!!!!!!!!!!!!!!!!!!!!!!!!!!!!!!!!!!!!!!!!!!!!!"
};
