/* XPM */
static char *gpomme_16x16[] = {
/* columns rows colors chars-per-pixel */
"16 16 18 1",
"  c black",
". c #2E3436",
"X c #555753",
"o c #70726D",
"O c #888A85",
"+ c #BABDB6",
"@ c #C0C2BD",
"# c #D5D5CF",
"$ c #D8D8D2",
"% c #DADAD6",
"& c #DDDDD9",
"* c #E0E0DC",
"= c #E3E3E0",
"- c #E6E6E3",
"; c #E9E9E6",
": c #ECECE9",
"> c #EEEEEC",
", c None",
/* pixels */
",,,,,,,,,,,,,,,,",
"oOOOOOOOOOOOOOOo",
"O@@@@@@@@@@@@@@O",
"O@::::::::::::@O",
"O@;;;;;;;;;;;;@O",
"O@>----..-..->@O",
"O@>=.==.===.=>@O",
"O@>.*.*..**.*>@O",
"O@>&.&&.&&&.&>@O",
"O@>%%%%.%%%.%>@O",
"O@>$$$$$$$$$$>@O",
"O@>##########>@O",
"O@>>>>>>>>>>>>@O",
"O@++++++++++++@O",
"oOOOOOOOOOOOOOOo",
",,,,,,,,,,,,,,,,"
};
