/* XPM */
static char *gpomme_22x22[] = {
/* columns rows colors chars-per-pixel */
"22 22 47 1",
"  c black",
". c #2E3436",
"X c #303537",
"o c #313738",
"O c #353A3C",
"+ c #363B3D",
"@ c #525756",
"# c #575C5B",
"$ c #5B605F",
"% c #70726D",
"& c #888A85",
"* c #90938D",
"= c #91948E",
"- c #92958F",
"; c #B3B4B0",
": c #B4B6B1",
"> c #BABDB6",
", c #C0C2BD",
"< c #C1C3BE",
"1 c #C2C3BE",
"2 c #C8CAC7",
"3 c #C9CBC7",
"4 c #CACBC7",
"5 c #CACAC8",
"6 c #D3D7CF",
"7 c #D5D5CF",
"8 c #D8D8D2",
"9 c #DADAD5",
"0 c #DADAD6",
"q c #DADAD7",
"w c #DBDBD7",
"e c #DBDBD8",
"r c #DCDCD9",
"t c #DDDDD9",
"y c #DCDDDA",
"u c #DDDDDA",
"i c #DEDEDB",
"p c #DFDFDC",
"a c #E0E0DC",
"s c #E3E3E0",
"d c #E6E6E3",
"f c #E9E9E6",
"g c #E8EAE6",
"h c #EAEBE8",
"j c #ECECE9",
"k c #EEEEEC",
"l c None",
/* pixels */
"llllllllllllllllllllll",
"llllllllllllllllllllll",
"llllllllllllllllllllll",
"llllllllllllllllllllll",
"llo&&&&&&&&&&&&&&&&.ll",
"l#:<<<<<,<<<<<,,<<<;@l",
"&&4>fjjjfjjjjjfjjj>5&l",
"*&u>ffffffffffffff>q&l",
"-&u>kdd.ddf..sX.sk>u&l",
"-&u>kssassa.sss.sk>u&l",
"-&u>k.a.a.a..aa.ik>w&l",
"-&u>kuuuuuu.uuu.uk>w&l",
"-&w>kww.w99.999.wk>w&l",
"-&w>k888888888888k>w&l",
"=&u>k777777777777k>p&l",
"&&f>kkkkkkkkkkkkkk>g&l",
"&&f>>>>>>>>>>>>>>>>g&l",
" $366666666666666664# ",
"  +%%%%%%%%%%%%%%%%+  ",
"                      ",
"llllllllllllllllllllll",
"llllllllllllllllllllll"
};
