/* XPM */
static char *gpomme_36x36[] = {
/* columns rows colors chars-per-pixel */
"36 36 211 2",
"   c #3C4143",
".  c #414648",
"X  c #464B4C",
"o  c #474C4D",
"O  c gray30",
"+  c #4E4E4E",
"@  c #4E5353",
"#  c #4E5354",
"$  c #4F5455",
"%  c #58584F",
"&  c #575751",
"*  c #565652",
"=  c #555555",
"-  c #545754",
";  c #535953",
":  c #515D51",
">  c #525C52",
",  c #555852",
"<  c #555955",
"1  c #585C58",
"2  c #5C5E58",
"3  c #5D5F5B",
"4  c #5E605C",
"5  c #5E605D",
"6  c #5E615D",
"7  c #5F625D",
"8  c #5F625E",
"9  c #60615D",
"0  c #60625E",
"q  c #60635E",
"w  c #626460",
"e  c #606464",
"r  c #626666",
"t  c #656763",
"y  c #656764",
"u  c #676865",
"i  c #676B6B",
"p  c #676C6C",
"a  c #6A6C67",
"s  c #686C6C",
"d  c #6B6F6F",
"f  c #6E706B",
"g  c #6D7172",
"h  c #6F7273",
"j  c #727570",
"k  c #727676",
"l  c #737777",
"z  c #777975",
"x  c #797B78",
"c  c #787C7B",
"v  c #7A7D7C",
"b  c #7A7E7D",
"n  c #7B7F7E",
"m  c #7D8180",
"M  c #818484",
"N  c #858883",
"B  c #878A8A",
"V  c #8A8C86",
"C  c #898B88",
"Z  c #8B8E8E",
"A  c #8D908F",
"S  c #8E9190",
"D  c #8F9291",
"F  c #949693",
"G  c #959796",
"H  c #969898",
"J  c #999A97",
"K  c #989B99",
"L  c #999B98",
"P  c #989A9A",
"I  c #9B9D9C",
"U  c #A0A2A0",
"Y  c #A3A5A3",
"T  c #A9ABA6",
"R  c #ABACA7",
"E  c #ACACA7",
"W  c #ABADAA",
"Q  c #AEB0AC",
"!  c #AEB0AD",
"~  c #AEB0AF",
"^  c #B1B1AD",
"/  c #B0B2AE",
"(  c #B2B3AE",
")  c #B3B4B0",
"_  c #B3B5B3",
"`  c #B5B6B0",
"'  c #B5B7B1",
"]  c #B4B6B3",
"[  c #B5B7B4",
"{  c #B6B7B4",
"}  c #B7B9B3",
"|  c #B7B9B6",
" . c #B8B8B4",
".. c #B8B9B6",
"X. c #BBBEB7",
"o. c #B8BAB8",
"O. c #B9BAB8",
"+. c #B9BBBA",
"@. c #BABBB9",
"#. c #BABBBA",
"$. c #BBBCB8",
"%. c #BBBDBB",
"&. c #BCBCB8",
"*. c #BCBCB9",
"=. c #BFBFBB",
"-. c #BDBEBC",
";. c #BEC0BA",
":. c #BEC1BB",
">. c #BFC0BC",
",. c #BFC0BE",
"<. c #C2C2BF",
"1. c #C2C3BF",
"2. c #C3C5BF",
"3. c #C2C3C0",
"4. c #C3C4C0",
"5. c #C5C5C1",
"6. c #C4C6C0",
"7. c #C4C6C1",
"8. c #C5C7C1",
"9. c #C6C6C2",
"0. c #C6C7C3",
"q. c #C7C7C4",
"w. c #C5C8C2",
"e. c #C6C8C2",
"r. c #C6C8C3",
"t. c #C6C9C3",
"y. c #C7C8C4",
"u. c #C7C9C4",
"i. c #C7C8C6",
"p. c #C8C9C4",
"a. c #C8C9C5",
"s. c #C9C9C6",
"d. c #C8CAC5",
"f. c #C8CBC5",
"g. c #C8CBC6",
"h. c #C9CAC6",
"j. c #CACAC6",
"k. c #C9CCC6",
"l. c #CACCC6",
"z. c #CACCC7",
"x. c #CACBC9",
"c. c #CACDC8",
"v. c #CCCCC9",
"b. c #CDCDC9",
"n. c #CCCDCA",
"m. c #CDCFCA",
"M. c #CFCFCB",
"N. c #CECFCC",
"B. c #CFCFCC",
"V. c #CED1CC",
"C. c #CFD0CC",
"Z. c #CFD0CD",
"A. c #D0D0CD",
"S. c #D1D1CD",
"D. c #D0D1CE",
"F. c #D1D1CE",
"G. c #D1D2CE",
"H. c #D3D3CE",
"J. c #D3D4D1",
"K. c #D3D5D1",
"L. c #D4D4D0",
"P. c #D4D4D1",
"I. c #D5D5D0",
"U. c #D6D6D1",
"Y. c #D6D6D2",
"T. c #D7D7D2",
"R. c #D7D7D3",
"E. c #D6D6D4",
"W. c #D6D7D5",
"Q. c #D7D7D4",
"!. c #D6D8D4",
"~. c #D8D8D3",
"^. c #D8D8D4",
"/. c #D8D9D5",
"(. c #D9D9D4",
"). c #D9D9D5",
"_. c #D9D9D7",
"`. c #DADAD6",
"'. c #DADBD7",
"]. c #DADAD9",
"[. c #DADBD9",
"{. c #DBDBD9",
"}. c #DADCD9",
"|. c #DBDCD9",
" X c #DBDCDA",
".X c #DCDCD8",
"XX c #DCDCD9",
"oX c #DDDDD9",
"OX c #DDDDDA",
"+X c #DDDDDB",
"@X c #DEDEDA",
"#X c #DFDFDC",
"$X c #E0E0DC",
"%X c #E0E0DE",
"&X c #E1E1DE",
"*X c #E1E2E0",
"=X c #E2E2E0",
"-X c #E3E3E0",
";X c #E4E4E1",
":X c #E5E5E2",
">X c #E5E5E3",
",X c #E7E7E4",
"<X c #E8E8E6",
"1X c #EAEAE8",
"2X c #ECECEA",
"3X c #ECEDEB",
"4X c #EEEFED",
"5X c #EFF0EE",
"6X c #F0F1EF",
"7X c gray100",
"8X c None",
/* pixels */
"8X8X8X8X8X8X8X8X8X8X8X8X8X8X8X8X8X8X8X8X8X8X8X8X8X8X8X8X8X8X8X8X8X8X8X8X",
"8X8X8X8X8X8X8X8X8X8X8X8X8X8X8X8X8X8X8X8X8X8X8X8X8X8X8X8X8X8X8X8X8X8X8X8X",
"8X8X8X8X8X8X8X8X8X8X8X8X8X8X8X8X8X8X8X8X8X8X8X8X8X8X8X8X8X8X8X8X8X8X8X8X",
"8X8X8X8X8X8X8X8X8X8X8X8X8X8X8X8X8X8X8X8X8X8X8X8X8X8X8X8X8X8X8X8X8X8X8X8X",
"8X8X8X8X8X8X8X8X8X8X8X8X8X8X8X8X8X8X8X8X8X8X8X8X8X8X8X8X8X8X8X8X8X8X8X8X",
"8X8X8X8X8X8X8X8X8X8X8X8X8X8X8X8X8X8X8X8X8X8X8X8X8X8X8X8X8X8X8X8X8X8X8X8X",
"8X8X8X8X8X8X8X8X8X8X8X8X8X8X8X8X8X8X8X8X8X8X8X8X8X8X8X8X8X8X8X8X8X8X8X8X",
"8X8X8X8X+ = ; ; ; ; ; ; ; ; - - ; ; ; ; ; ; ; ; ; ; ; ; ; - - + 8X8X8X8X",
"8X8X= 4 z B N N N N N N N N N N N N N N N N N M N N N N N N V j 4 % 8X8X",
"8X: w K.` E E E E E E E E E E E E E E E E E E R R R R R R R E  . Xq + 8X",
"8X4 ) ( <.,X2X2X2X2X2X2X3X2X3X3X2X2X2X2X2X2X3X3X2X2X2X2X2X2X:X&.( R 2 8X",
"8X9 0.( <X1X1X1X2X<X2X<X1X1X1X1X1X1X1X1X1X1X1X1X1X1X1X1X1X1X1X:X( 2.9 8X",
"8Xt 8.-.,X<X<X<X<X<Xg +.,X1X,X,X<X<X<X<X,X<X<X,X,X,X,X,X,X<X<X<X{ w.9 8X",
"8Xy 8.<.,X,XOXB :X,XI x.,Xx.P ,X,X,X,X,X,X,XE.P P P +XI P E.,X,X-.u.7 8X",
"8Xy 8.8.:X:X:Xn ` :Xq.OX:Xl %.,X:X:X:X:X,X;X,.  H H  XH . %.:X:X>.w.4 8X",
"8Xy w.q.-X-X&X-XK.p M h S &X&X>X-X-X-X-X>X*X-.= &X&X-X&X- %.-X-X4.u.4 8X",
"8Xu 0.0.$XH.%.OXZ +.$X$Xk U.N.<.#X$X$X&X$X$X-.X W +.$X$X- +.$X$Xu.0.9 8X",
"8Xu f.j.#XU r M.d _.$X$XZ [ P w _.$X$X$X$X$X+.  n F $X$X# +.$X$X0.u.4 8X",
"8Xy f.H.OXOX@X@XW m _.8.r OX@X@XOXOX+X$XOX@X| # OXOXOX@X# | #X@XM.u.4 8X",
"8Xy 0.H.'.OX'.8.M.Y i n 4.| '.'.'.'.OXOX'.OX{ @ `.OX'.OX# ` OXOXH.0.4 8X",
"8Xy f.U.'.`.S.o { _.S.U.'.c v '.'.`.`.`.`.`.` @ `.'.`.`.# ) _._.U.f.4 8X",
"8Xy g.E.~.~.~.0._.~.s W _.T.f.~.(.(.(.`.(.(.H.&.(.~.~._.-.H.~.~.W.0.8 8X",
"8Xy g.].~.U.~.~.~.~.L <.T.T.T.T.~.~.~.~.~.(.~.~.~.~.~.U.U.~.~.U. Xu.4 8X",
"8Xy f.+X~.U.H.H.H.~.H.H.H.U.U.H.H.U.H.H.H.H.H.U.H.H.U.H.U.U.H.~. Xf.4 8X",
"8X9 m. X$XT.H.H.K.K.H.U.H.H.H.H.H.K.H.H.H.U.H.K.H.H.H.H.H.K._.$XW.0.w 8X",
"8X4  X4XH.].;X&X&X&X&X&X&X&X;X;X&X&X;X&X&X&X&X&X&X:X$X;X;X&X_.K.4XH.4 8X",
"8X& x 4Xg.:.X.X.X.X.X.X.X.;.&.X.X.X.;.;.X.X.;.X.&.X.X.;.X.;.;.V.3Xf : 8X",
"8X8X1 a L W ) W ( ) W ( ~ ~ ( ! ) W W ( ( ~ W ( ( ( ( W ! ) W F y < 8X8X",
"8X8X8X= & , = < - - - - - - - - < - - - - - - - - - - - ; - , = = 8X8X8X",
"8X8X8X8X8X8X8X8X8X8X8X8X8X8X8X8X8X8X8X8X8X8X8X8X8X8X8X8X8X8X8X8X8X8X8X8X",
"8X8X8X8X8X8X8X8X8X8X8X8X8X8X8X8X8X8X8X8X8X8X8X8X8X8X8X8X8X8X8X8X8X8X8X8X",
"8X8X8X8X8X8X8X8X8X8X8X8X8X8X8X8X8X8X8X8X8X8X8X8X8X8X8X8X8X8X8X8X8X8X8X8X",
"8X8X8X8X8X8X8X8X8X8X8X8X8X8X8X8X8X8X8X8X8X8X8X8X8X8X8X8X8X8X8X8X8X8X8X8X",
"8X8X8X8X8X8X8X8X8X8X8X8X8X8X8X8X8X8X8X8X8X8X8X8X8X8X8X8X8X8X8X8X8X8X8X8X",
"8X8X8X8X8X8X8X8X8X8X8X8X8X8X8X8X8X8X8X8X8X8X8X8X8X8X8X8X8X8X8X8X8X8X8X8X",
"8X8X8X8X8X8X8X8X8X8X8X8X8X8X8X8X8X8X8X8X8X8X8X8X8X8X8X8X8X8X8X8X8X8X8X8X"
};
