/* XPM */
static char *gpomme_32x32[] = {
/* columns rows colors chars-per-pixel */
"32 32 172 2",
"   c #3E4345",
".  c #3E4445",
"X  c gray25",
"o  c #404547",
"O  c #4D5253",
"+  c #505556",
"@  c #515656",
"#  c #515657",
"$  c #575751",
"%  c #555555",
"&  c #575B57",
"*  c #535858",
"=  c #565A5B",
"-  c #5B5B57",
";  c #585C58",
":  c #5A5D5A",
">  c #595E5E",
",  c #5A5E5F",
"<  c #5C5C59",
"1  c #5A5F60",
"2  c #5B5F60",
"3  c #5E605B",
"4  c #5F615D",
"5  c #60625E",
"6  c #606060",
"7  c #636460",
"8  c #636560",
"9  c #646561",
"0  c #646562",
"q  c #646661",
"w  c #646869",
"e  c #656969",
"r  c #666A6A",
"t  c #696D6C",
"y  c #6C6E6A",
"u  c #6D706B",
"i  c #6D7171",
"p  c #6E7272",
"a  c #70726E",
"s  c #727470",
"d  c #747777",
"f  c #757874",
"g  c #777B7A",
"h  c #797B76",
"j  c #797B77",
"k  c #7A7D78",
"l  c #7B7E7E",
"z  c #7C7E7A",
"x  c #7D807F",
"c  c #7E817C",
"v  c #7F817D",
"b  c #7E8180",
"n  c #80827E",
"m  c #808383",
"M  c #838581",
"N  c #868988",
"B  c #8B8E8D",
"V  c #8E918E",
"C  c #979994",
"Z  c #969997",
"A  c #979997",
"S  c #9A9C98",
"D  c #A1A3A1",
"F  c #A5A7A5",
"G  c #A6A8A4",
"H  c #A7A9A7",
"J  c #A8A9A6",
"K  c #ACADAA",
"L  c #ACAEAB",
"P  c #AEB0AE",
"I  c #B0B0AB",
"U  c #B0B0AC",
"Y  c #B0B1AC",
"T  c #B1B1AC",
"R  c #B2B2AD",
"E  c #B2B2AE",
"W  c #B2B3B1",
"Q  c #B2B4B1",
"!  c #B6B7B6",
"~  c #B7B9B5",
"^  c #B8B9B6",
"/  c #B9BAB6",
"(  c #BABBB6",
")  c #BABBB7",
"_  c #BBBCB7",
"`  c #BBBDB7",
"'  c #BBBEB7",
"]  c #BABCB9",
"[  c #BCBDB9",
"{  c #BCBEB8",
"}  c #BCBFB8",
"|  c #BDBEB9",
" . c #BDBEBB",
".. c #BFC0BB",
"X. c #BFC1BB",
"o. c #BEC1BC",
"O. c #C0C1BC",
"+. c #C1C2BE",
"@. c #C2C3BF",
"#. c #C3C5C0",
"$. c #C4C5C0",
"%. c #C4C6C1",
"&. c #C5C7C2",
"*. c #C6C7C3",
"=. c #C6C7C4",
"-. c #C5C8C2",
";. c #C6C8C3",
":. c #C6C9C3",
">. c #C7C8C5",
",. c #C8C9C4",
"<. c #C9C9C4",
"1. c #C9C9C5",
"2. c #C8C9C6",
"3. c #C9CAC6",
"4. c #CACBC6",
"5. c #CACCC6",
"6. c #CACCC8",
"7. c #CBCCC8",
"8. c #CBCCC9",
"9. c #CBCDC8",
"0. c #CCCDC8",
"q. c #CCCDC9",
"w. c #CDCEC8",
"e. c #CDCFCB",
"r. c #D0D0CC",
"t. c #D1D2CE",
"y. c #D2D3CF",
"u. c #D4D4CE",
"i. c #D4D4CF",
"p. c #D3D3D1",
"a. c #D3D4D0",
"s. c #D4D5D2",
"d. c #D6D6D0",
"f. c #D7D7D1",
"g. c #D6D6D3",
"h. c #D7D7D2",
"j. c #D7D7D3",
"k. c #D7D7D4",
"l. c #D8D8D3",
"z. c #D8D8D4",
"x. c #D8D8D5",
"c. c #D9D9D4",
"v. c #D9D9D5",
"b. c #DADAD5",
"n. c #DADAD7",
"m. c #DBDBD7",
"M. c #DCDCD7",
"N. c #DBDCD8",
"B. c #DCDCD8",
"V. c #DCDDD9",
"C. c #DCDDDA",
"Z. c #DEDED9",
"A. c #DFE0DD",
"S. c #E0E0DC",
"D. c #E0E0DD",
"F. c #E1E1DD",
"G. c #E0E0DE",
"H. c #E2E2DE",
"J. c #E2E2DF",
"K. c #E3E5E2",
"L. c #E4E4E0",
"P. c #E4E4E1",
"I. c #E4E5E3",
"U. c #E6E6E2",
"Y. c #E7E8E5",
"T. c #E8E8E5",
"R. c #E8E9E7",
"E. c #EAEAE7",
"W. c #E9EAE8",
"Q. c #ECECE9",
"!. c gray100",
"~. c None",
/* pixels */
"~.~.~.~.~.~.~.~.~.~.~.~.~.~.~.~.~.~.~.~.~.~.~.~.~.~.~.~.~.~.~.~.",
"~.~.~.~.~.~.~.~.~.~.~.~.~.~.~.~.~.~.~.~.~.~.~.~.~.~.~.~.~.~.~.~.",
"~.~.~.~.~.~.~.~.~.~.~.~.~.~.~.~.~.~.~.~.~.~.~.~.~.~.~.~.~.~.~.~.",
"~.~.~.~.~.~.~.~.~.~.~.~.~.~.~.~.~.~.~.~.~.~.~.~.~.~.~.~.~.~.~.~.",
"~.~.~.~.~.~.~.~.~.~.~.~.~.~.~.~.~.~.~.~.~.~.~.~.~.~.~.~.~.~.~.~.",
"~.~.~.~.~.~.~.~.~.~.~.~.~.~.~.~.~.~.~.~.~.~.~.~.~.~.~.~.~.~.~.~.",
"~.~.~.~.X 6 6 6 5 6 6 6 6 6 6 6 6 6 6 6 6 6 6 6 6 6 6 X ~.~.~.~.",
"~.~.< 0 k v v v n z n n n z v n v v v v v v v v v v n h 0 ; ~.~.",
"~.- V ` I I E E T R R R E E E R R R R R R R R R E E T T X.z & ~.",
"~.8 ;.E U.Q.Q.Q.Q.Q.Q.Q.Q.Q.E.Q.Q.Q.Q.Q.Q.Q.Q.Q.Q.Q.Q.H.T *.5 ~.",
"~.f { t.R.E.R.Q.E.! E.E.Q.R.R.Q.E.E.E.E.E.E.R.R.R.R.E.E.<.+.u ~.",
"~.M ( B.R.R.B.R.T.+ T.R.B.Y.Y.Y.T.T.T.T.T.T.R.R.R.T.T.T.y._ h ~.",
"~.M { m.U.U.r Q T.u.U.8.* H.U.U.T.T.H.T.r @ = >.= o U.U.n.{ h ~.",
"~.M X.m.J.U.B.y.B y m p.y.J.U.J.H.H.H.H., >.U.J.U.  H.U.h.X.h ~.",
"~.M +.n.H.B.H.F H H.*.N H.B.H.L.H.H.H.H., P <.H.H.  H.H.y.+.h ~.",
"~.M #.n.y., W l n.H.Z.d 4.2 ] Z.A.F.F.H., r g A.A.  Z.H.n.*.h ~.",
"~.M ;.n.M.B.B.~ b 9.C C Z.Z.A.M.Z.Z.Z.Z., @.M.A.Z.o A.Z.f.;.h ~.",
"~.n <.m.B.m.o.` ' b L <.I M.m.m.M.M.M.M.: +.m.m.m.. m.m.b.<.h ~.",
"~.M 8.n.m.m.p @.n.D m.r.e i.m.m.b.b.b.b.y @.b.b.b.* b.m.n.<.h ~.",
"~.M w.m.f.f.f.f.f.O n.f.f.f.f.f.l.l.l.l.l.l.l.l.f.f.f.f.f.0.h ~.",
"~.M 9.n.f.f.i.d.y.w.f.y.f.y.f.d.d.d.d.d.d.d.d.d.i.f.f.y.m.<.j ~.",
"~.z 9.Z.n.y.i.i.i.i.i.i.i.s.i.i.u.u.u.u.u.u.u.u.i.i.i.x.H.9.s ~.",
"~.0 Q.L.N.Z.A.Z.J.M.H.H.Z.G.Z.Z.A.A.A.A.A.A.A.A.H.Z.Z.x.Y.U.8 ~.",
"~.: ~ Y.:.' ' ' ' ' ` ` ' ' o.` ' ' ' ' ' ' ' ' ' ' ' *.Q.H : ~.",
"~.~.5 a S G G G G G G G G G G G G G G G G G G G G G G C y 4 ~.~.",
"~.~.~.X $ % % % % % % % % % % % % % % % % % % % % % % % % ~.~.~.",
"~.~.~.~.~.~.~.~.~.~.~.~.~.~.~.~.~.~.~.~.~.~.~.~.~.~.~.~.~.~.~.~.",
"~.~.~.~.~.~.~.~.~.~.~.~.~.~.~.~.~.~.~.~.~.~.~.~.~.~.~.~.~.~.~.~.",
"~.~.~.~.~.~.~.~.~.~.~.~.~.~.~.~.~.~.~.~.~.~.~.~.~.~.~.~.~.~.~.~.",
"~.~.~.~.~.~.~.~.~.~.~.~.~.~.~.~.~.~.~.~.~.~.~.~.~.~.~.~.~.~.~.~.",
"~.~.~.~.~.~.~.~.~.~.~.~.~.~.~.~.~.~.~.~.~.~.~.~.~.~.~.~.~.~.~.~.",
"~.~.~.~.~.~.~.~.~.~.~.~.~.~.~.~.~.~.~.~.~.~.~.~.~.~.~.~.~.~.~.~."
};
