/* XPM */
static char *gpomme_48x48[] = {
/* columns rows colors chars-per-pixel */
"48 48 69 1",
"  c #2E3436",
". c #33393A",
"X c #3E4345",
"o c #454A4B",
"O c #4A4F50",
"+ c #4D5253",
"@ c #545653",
"# c #555853",
"$ c #545859",
"% c #585A55",
"& c #5A5D59",
"* c #5A5F60",
"= c #5E605C",
"- c #5B6060",
"; c #61645F",
": c #616464",
"> c #656969",
", c #686A66",
"< c #6A6E6D",
"1 c #6E706C",
"2 c #6D7170",
"3 c #707473",
"4 c #757978",
"5 c #797A77",
"6 c #7A7D7C",
"7 c #7E8181",
"8 c #838581",
"9 c #858887",
"0 c #878A89",
"q c #8C8F8D",
"w c #8E918C",
"e c #8F9291",
"r c #90928E",
"t c #939593",
"y c #969896",
"u c #979998",
"i c #989A96",
"p c #9A9C99",
"a c #9EA19E",
"s c #A3A39E",
"d c #A5A6A3",
"f c #AAAAA5",
"g c #ACADA9",
"h c #AEB0AC",
"j c #B1B2AE",
"k c #B5B6B3",
"l c #B7B8B5",
"z c #B8B9B6",
"x c #BCBEB8",
"c c #BEC0BB",
"v c #C1C2BD",
"b c #C4C5C1",
"n c #C6C8C3",
"m c #C8C9C5",
"M c #CCCDC9",
"N c #CFD0CC",
"B c #D4D4CE",
"V c #D5D5D1",
"C c #D7D8D4",
"Z c #D9D9D4",
"A c #DDDDD9",
"S c #DFE0DD",
"D c #E1E1DE",
"F c #E4E4E1",
"G c #E9E9E6",
"H c #EBEBE9",
"J c #F3F3F2",
"K c gray100",
"L c None",
/* pixels */
"LLLLLLLLLLLLLLLLLLLLLLLLLLLLLLLLLLLLLLLLLLLLLLLL",
"LLLLLLLLLLLLLLLLLLLLLLLLLLLLLLLLLLLLLLLLLLLLLLLL",
"LLLLLLLLLLLLLLLLLLLLLLLLLLLLLLLLLLLLLLLLLLLLLLLL",
"LLLLLLLLLLLLLLLLLLLLLLLLLLLLLLLLLLLLLLLLLLLLLLLL",
"LLLLLLLLLLLLLLLLLLLLLLLLLLLLLLLLLLLLLLLLLLLLLLLL",
"LLLLLLLLLLLLLLLLLLLLLLLLLLLLLLLLLLLLLLLLLLLLLLLL",
"LLLLLLLLLLLLLLLLLLLLLLLLLLLLLLLLLLLLLLLLLLLLLLLL",
"LLLLLLLLLLLLLLLLLLLLLLLLLLLLLLLLLLLLLLLLLLLLLLLL",
"LLLLLLLLLLLLLLLLLLLLLLLLLLLLLLLLLLLLLLLLLLLLLLLL",
"LLLLLLLLLLLLLLLLLLLLLLLLLLLLLLLLLLLLLLLLLLLLLLLL",
"LLLL@@@%%%%%%%%%##%%#######%#%%%%%%%#%%#%@@@LLLL",
"LLL@&1rpiiiiiiiaiiiiiiasiiiiiiiiiiisiiiipr,&@LLL",
"LL@&MngdsssssssssssssssssssssssssssssssssfMN%@LL",
"L:%gmdbADDDDDDDDDDDDDDDDDDDDDDDDDDDDDDDDAxfmi&LL",
"L@;BgMGGHHHHHHHHHHHHHHHHJHHHHHHHHHHHJHHHHHvjN#$L",
"L@8nfGGGHHGGHHHHGGHHGHGGGGGGGHHHHGGGGGGGGHDfM1#L",
"L@uxjGGGGGGGGn GGHGGGGGGGGGGGGGGGGGGGGGGGGGgv8%L",
"L@uxlFFGGNFFFn FGDZDGGFFGFGGFFGFFGFGGFGFFFFkn8@L",
"L@uxzFGFF*2FFSnFFC@8FFFGFFFFFF6XXX*FoXoFGFFkv8@L",
"L@tvvFFFFN*NFChDFk,SFFFFFFFFFF<@lzcFz7.FDFFlv8@L",
"L@yxvDDDFFDC3+4O0FFSFSFDDFDFDD2*FSFDDp.DDDDxb8@L",
"L@ixvDDDSDDu7DSA*xDDFDDSDDDDSF2*DDDDDp.DDDDxb8@L",
"L@ivmDSa7gS$MADDg4Sy6lDDDDSSDD<X-:jDDi.DDDDbn8@L",
"L@ivmAAu3dSOBAADg2Sq3hAADAAAAA<ottvAAi.ZDAAmb8@L",
"L@ivMAAAAAAq9AAA;kDZDZDZAAAAAA<&DZDDDt.DASAMb8@L",
"L@ivNAAAAAAN>%6O5SZDZDZDAAAAAA<&ZDZZZi.DZZANb8@L",
"L@inBAZAAM,vZmpBAj1ZZDDZZAAZZA<*SZZDZt.ZAZANb8@L",
"L@ivBZZVA=;BZCnZZno8ZVZZZZZZZC<&ZZZZZi.ZZZZVb8@L",
"L@inCZZZZvBZZz ZZZnMZVZZVAVAZZlhZZZZVndZZZZAn8@L",
"L@inZCVVZZBZBz ZVZVVZZZBZVVVCCVZZVVVVZVVZVVAn8@L",
"L@inAVVVZBBZBBMVVVVVVVVVVVVVVVVVVVVVVVVVVVCSn8@L",
"L@ivDZVVBBBBVBBVBBBVVBBBBVVBBBBVVBVVBVBBBVZAn8@L",
"L@qnCFVBBBBBBBBBBBBBBBBBBBBBBBBBBBBBBBBBBVFNM5#L",
"L@,FHFGFSSDDDSDFDDDDDDDDDDDDDDDDDDDDDDDDFGGHS&#L",
"L@%GJAcmMMMMMMMMMMMMMMMMMMMMMMMMMMMMMMMMncFJC%LL",
"LL@6HDnxcxxxxxxxxxxxxxxxxxxxxxxxxxxxxxxxcmFH,@LL",
"LLL%:pxmmmmmnnmmmmmmmnmmmmnnmmnmmmnmmmnmnlu&%LLL",
"LLLL@%&&&&&&&&&&&&%&&&&&&=&&&&&&&&&&&&&&&&%@LLLL",
"LLLLLLLLLLLLLLLLLLLLLLLLLLLLLLLLLLLLLLLLLLLLLLLL",
"LLLLLLLLLLLLLLLLLLLLLLLLLLLLLLLLLLLLLLLLLLLLLLLL",
"LLLLLLLLLLLLLLLLLLLLLLLLLLLLLLLLLLLLLLLLLLLLLLLL",
"LLLLLLLLLLLLLLLLLLLLLLLLLLLLLLLLLLLLLLLLLLLLLLLL",
"LLLLLLLLLLLLLLLLLLLLLLLLLLLLLLLLLLLLLLLLLLLLLLLL",
"LLLLLLLLLLLLLLLLLLLLLLLLLLLLLLLLLLLLLLLLLLLLLLLL",
"LLLLLLLLLLLLLLLLLLLLLLLLLLLLLLLLLLLLLLLLLLLLLLLL",
"LLLLLLLLLLLLLLLLLLLLLLLLLLLLLLLLLLLLLLLLLLLLLLLL",
"LLLLLLLLLLLLLLLLLLLLLLLLLLLLLLLLLLLLLLLLLLLLLLLL",
"LLLLLLLLLLLLLLLLLLLLLLLLLLLLLLLLLLLLLLLLLLLLLLLL"
};
