/* XPM */
static char *gpomme_72x72[] = {
/* columns rows colors chars-per-pixel */
"72 72 72 1",
"  c black",
". c #2E3436",
"X c #303638",
"o c #353A3C",
"O c #3D4244",
"+ c #404243",
"@ c #424749",
"# c #454A4B",
"$ c #4B4B4B",
"% c #4A4F50",
"& c #4C5152",
"* c #545653",
"= c #525758",
"- c #555853",
"; c #595B57",
": c #5A5C5C",
"> c #5C6061",
", c #62645F",
"< c #636666",
"1 c #666864",
"2 c #666A6B",
"3 c #696B67",
"4 c #696C69",
"5 c #6C706F",
"6 c #6F7272",
"7 c #727470",
"8 c #747877",
"9 c #757978",
"0 c #797B7B",
"q c #7E8281",
"w c #828583",
"e c #868989",
"r c #8A8C8B",
"t c #8D908E",
"y c #8E9190",
"u c #90918D",
"i c #919493",
"p c #9B9D9C",
"a c #9FA09E",
"s c #A2A29D",
"d c #A3A5A2",
"f c #A6A8A5",
"g c #AAABA6",
"h c #ACADA9",
"j c #AEB0AD",
"k c #B2B3AE",
"l c #B4B5B1",
"z c #B6B9B3",
"x c #B9BBB5",
"c c #BCBDB8",
"v c #BDC0BA",
"b c #C1C2BD",
"n c #C4C5C1",
"m c #C6C8C3",
"M c #C9CAC6",
"N c #CCCDC9",
"B c #CED0CB",
"V c #D3D3CE",
"C c #D5D5D1",
"Z c #D6D8D4",
"A c #D9D9D4",
"S c #DDDDD9",
"D c #DFE0DE",
"F c #E1E1DD",
"G c #E5E5E2",
"H c #E7E8E6",
"J c #E8E8E6",
"K c #EBEBE9",
"L c #EFF0EE",
"P c #F4F5F4",
"I c gray100",
"U c None",
/* pixels */
"UUUUUUUUUUUUUUUUUUUUUUUUUUUUUUUUUUUUUUUUUUUUUUUUUUUUUUUUUUUUUUUUUUUUUUUU",
"UUUUUUUUUUUUUUUUUUUUUUUUUUUUUUUUUUUUUUUUUUUUUUUUUUUUUUUUUUUUUUUUUUUUUUUU",
"UUUUUUUUUUUUUUUUUUUUUUUUUUUUUUUUUUUUUUUUUUUUUUUUUUUUUUUUUUUUUUUUUUUUUUUU",
"UUUUUUUUUUUUUUUUUUUUUUUUUUUUUUUUUUUUUUUUUUUUUUUUUUUUUUUUUUUUUUUUUUUUUUUU",
"UUUUUUUUUUUUUUUUUUUUUUUUUUUUUUUUUUUUUUUUUUUUUUUUUUUUUUUUUUUUUUUUUUUUUUUU",
"UUUUUUUUUUUUUUUUUUUUUUUUUUUUUUUUUUUUUUUUUUUUUUUUUUUUUUUUUUUUUUUUUUUUUUUU",
"UUUUUUUUUUUUUUUUUUUUUUUUUUUUUUUUUUUUUUUUUUUUUUUUUUUUUUUUUUUUUUUUUUUUUUUU",
"UUUUUUUUUUUUUUUUUUUUUUUUUUUUUUUUUUUUUUUUUUUUUUUUUUUUUUUUUUUUUUUUUUUUUUUU",
"UUUUUUUUUUUUUUUUUUUUUUUUUUUUUUUUUUUUUUUUUUUUUUUUUUUUUUUUUUUUUUUUUUUUUUUU",
"UUUUUUUUUUUUUUUUUUUUUUUUUUUUUUUUUUUUUUUUUUUUUUUUUUUUUUUUUUUUUUUUUUUUUUUU",
"UUUUUUUUUUUUUUUUUUUUUUUUUUUUUUUUUUUUUUUUUUUUUUUUUUUUUUUUUUUUUUUUUUUUUUUU",
"UUUUUUUUUUUUUUUUUUUUUUUUUUUUUUUUUUUUUUUUUUUUUUUUUUUUUUUUUUUUUUUUUUUUUUUU",
"UUUUUUUUUUUUUUUUUUUUUUUUUUUUUUUUUUUUUUUUUUUUUUUUUUUUUUUUUUUUUUUUUUUUUUUU",
"UUUUUUUUUUUUUUUUUUUUUUUUUUUUUUUUUUUUUUUUUUUUUUUUUUUUUUUUUUUUUUUUUUUUUUUU",
"UUUUUUUUUUUUUUUUUUUUUUUUUUUUUUUUUUUUUUUUUUUUUUUUUUUUUUUUUUUUUUUUUUUUUUUU",
"UUUUUUUU<************&****&**************&********-&*********** UUUUUUUU",
"UUUUUU*********************************-******--*******-*****-*---UUUUUU",
"UUUU#*-:ugczlllllllllllllllllllllllllllllllkkkxkllllllllllllxxsw;-- UUUU",
"UUUU*-sBNkgssssssssssssssssssssssssssssssssssssssssssssssssssgxVmr--UUUU",
"UUU**rPAgsskzzxxxxlxxxlxxxxxxxxllxxlxxxxxxxxxxxczzzzlxxxxxlxkssgKK8-*UUU",
"UU;-1VbhsMKKKKKKKKKKKKKKKKKKKKKKKKKKJLJKKKKKKKKKKKKKKKKKLKKKKJvskMM;*UUU",
"UU-*kBkdVKKKKKKKKKKKKKKKKKKKKKKKKKKKLJKKKKKKKKKKKKKKKKKKKKKKKKKbskAi*$UU",
"UU**MbdcKKKKKKKKKKKKKKKKKJKKKKKKKKKKLJKKKLKKKKJKKKKKKKKKKJKJKKKKhhml**UU",
"UU-;AxgNJKJKJKKJKJJKJFJKKJJJKKJKJJJKKJJJJKFKJKJJKJKJKKKKKJKJJJJKbgbN**UU",
"UU*3ZlhAHJJJHJJJJJJJj.iHKHJJJJJJJJJJJJJJJJJJJJJJJJJJJJJJJJJJJKJJNhzZ**UU",
"UU*3CzhAHHHHHGHHJJJJj.yHHHHHHJJGJJFJJJJJHJGJJJHJGHHJHHJJJJJJFKFJNhxV**UU",
"UU*3CzjAGHHHHHzSJJJJj.yHHHGGjJHGJJJJJJJFGJGHGJGHJGHHGHJJJJFJJKKJNjxC**UU",
"UU-3CzlAGGGHHzX:AFJFZcBHGGG9.pGGFJFJFJFJHGGGGp&$&$%$bG&$$$sJFFJFNlxB**UU",
"UU*3CxzAGGGGGF2.,FGGGGGGGGq.&ZGGFJGJFGGGGGGGGt.oOOOObG$@o.pFFFKFBzcC**UU",
"UU-4CxxAGGGGGGF4gGGVfwpMGGb>ZGGGGGFFJFFGGGFGGt.0GGGHFJGG0.pFJFJFNzxC**UU",
"UU*3CxxAFGFFFGGGFFioo*+.qSFFGGFFFGJFFJGFFGGFGt.0GFFGFFFF0.iFFFFFCxxV**UU",
"UU*3CxcAGFFGFFFFFpouFGFf+8FGGFFGFFFFFFGFGFFGFt.0FGFFFFGF8.pFJFJFVcxC**UU",
"UU*4VcbAFFFFFFFFVouFFFFFj.xFFFFFFFFFFFFFFFFFFu.0FFFFFFFF8.iFFFFFVvcV==UU",
"UU*4VbbAFFFsdsBFdoAFFFDDD&eDDfssAFSFFFFFFFFFSu.&089sFFFF8.iFFFFFBbcV**UU",
"UU*4CcnAFDD...hFr&FFFFDDD43Dm.XXbFSFFFFSFFFFSu.....9FFFF8.iFSFFFCnxC**UU",
"UU*2CcnAFDDiiibFfoFADFSSD*wDZiuuAFSFASSFSSSSSu.4nnnBSSSS8.uFFSSSCmxB**UU",
"UU*4CbMASSSSFFAAMXpSSSSDz.jDSSSSSSSSFFAFSSSSAu.0SSSSSSSS7.uSSSSSVMcC**UU",
"UU*3CvNCASSSAAAFFeosADSkO5ADSSASSASSASSASSSSSr.0SSSSSSAS7.iSSSSAZNcC**UU",
"UU*4VbVASSASAFAFSAq.#<&X4BDASSSSSSSSAFAFSSSSAu.7AASSSASS7XiSASSSCNxC**UU",
"UU*3VvVAASAAFAA8hASbt6ekSDb3VSAAAASASAAAASAAArX7ASSAASAS6.uSASAACCcC*-UU",
"UU*4CbCAAAASAA7.-AAASAAAAA7.:VASSAAAAAASAAASAu.7AAAAAAAA6XyAAASAZBcV==UU",
"UU*3CbZAAAAAAh.&NAAABbNAAAC3XuAAAAAAAAAAAAAAAu.7AAAAAAAA6.uAAAAAZZvC**UU",
"UU*4CnZAAAAAAAsNAAAAs.rAAAAViAAAAAAAAAAAAAAAAkugAAAAAAAAfelAAAAAZScV**UU",
"UU*3CnSCVAAVAVAVAZVAs.eAAVAAAAVAVAAAAVAAVAAVAVVAAAAVAAAVAAAACACAZSvV**UU",
"UU*4CnSAAAVAAAAAVACAd.eAACAACAACAVAAVAAVAVVAAVVAVVAAAAVAACACCCACAScC*-UU",
"UU*4BnDZVAAVVVVVCCCCBbMVCCVVVCVCAVVAAVVAAVAVAVAVVAVVVAVAVCCCCCCCADcC*-UU",
"UU-4CcGAVVVVVVVAVACCVAAVAVCCCCVCVAVVVVAVVAVVVAVAAVVAVVVVCVCCCCCCFSxC*-UU",
"UU-2ZxDGAVVAVVVVVVCVVVVVVVVVCVVVVVVVVVVVVVVAVVVVVVVVVAVVAVCVVVVCFZcC*-UU",
"UU*,AxNHSCVVVVVVVVVVVVVVVVVVVVVVVVVVVVVVVVVVVVVVVVVVVVVVVVVVVCCFJbbV--UU",
"UU**CmHHHHZCCVVVVVVVVVVVVBVVVVVVBVVVVVVVVBVVVVVVVVVVVVVVVVVVCAGJFFBv--UU",
"UU**cPPKSJKKKKHJKJJGJJKJJJJKKKJJKKKJJJJKJKHKJJKJKKJJKKKKJKKJKJGHLLLs-*UU",
"UU**dPPKZvMCCCCZCCCBCZZZZZZVCCVBZZVZZZVVZCZZZZCCVCCACCCCVCCCVncGLPPq-UUU",
"UUU**SPPbvxxxcxxvxvvxxxxvxvvlvvvxxxxvvvkxxvxxxxxcxcxcxxxcxxxcczCPPb-*UUU",
"UUU**4FPDBbvccvvvvvvvvvvvvvvvvvvvvvvvvvvvcvcvvvvcbcccbvvvvvcbnNFPN;-UUUU",
"UUUU***abDDSDDSSSSSSSSFDDDDSADDDDDDDDADDDSDDSSSSSSSSSSSSDDSSSSZbu-**UUUU",
"UUUUU:**--556776777777745757774777557777577577777777777755777<**--oUUUUU",
"UUUUUUU*-***********************--**********************;-*******UUUUUUU",
"UUUUUUUUUUUUUUUUUUUUUUUUUUUUUUUUUUUUUUUUUUUUUUUUUUUUUUUUUUUUUUUUUUUUUUUU",
"UUUUUUUUUUUUUUUUUUUUUUUUUUUUUUUUUUUUUUUUUUUUUUUUUUUUUUUUUUUUUUUUUUUUUUUU",
"UUUUUUUUUUUUUUUUUUUUUUUUUUUUUUUUUUUUUUUUUUUUUUUUUUUUUUUUUUUUUUUUUUUUUUUU",
"UUUUUUUUUUUUUUUUUUUUUUUUUUUUUUUUUUUUUUUUUUUUUUUUUUUUUUUUUUUUUUUUUUUUUUUU",
"UUUUUUUUUUUUUUUUUUUUUUUUUUUUUUUUUUUUUUUUUUUUUUUUUUUUUUUUUUUUUUUUUUUUUUUU",
"UUUUUUUUUUUUUUUUUUUUUUUUUUUUUUUUUUUUUUUUUUUUUUUUUUUUUUUUUUUUUUUUUUUUUUUU",
"UUUUUUUUUUUUUUUUUUUUUUUUUUUUUUUUUUUUUUUUUUUUUUUUUUUUUUUUUUUUUUUUUUUUUUUU",
"UUUUUUUUUUUUUUUUUUUUUUUUUUUUUUUUUUUUUUUUUUUUUUUUUUUUUUUUUUUUUUUUUUUUUUUU",
"UUUUUUUUUUUUUUUUUUUUUUUUUUUUUUUUUUUUUUUUUUUUUUUUUUUUUUUUUUUUUUUUUUUUUUUU",
"UUUUUUUUUUUUUUUUUUUUUUUUUUUUUUUUUUUUUUUUUUUUUUUUUUUUUUUUUUUUUUUUUUUUUUUU",
"UUUUUUUUUUUUUUUUUUUUUUUUUUUUUUUUUUUUUUUUUUUUUUUUUUUUUUUUUUUUUUUUUUUUUUUU",
"UUUUUUUUUUUUUUUUUUUUUUUUUUUUUUUUUUUUUUUUUUUUUUUUUUUUUUUUUUUUUUUUUUUUUUUU",
"UUUUUUUUUUUUUUUUUUUUUUUUUUUUUUUUUUUUUUUUUUUUUUUUUUUUUUUUUUUUUUUUUUUUUUUU",
"UUUUUUUUUUUUUUUUUUUUUUUUUUUUUUUUUUUUUUUUUUUUUUUUUUUUUUUUUUUUUUUUUUUUUUUU",
"UUUUUUUUUUUUUUUUUUUUUUUUUUUUUUUUUUUUUUUUUUUUUUUUUUUUUUUUUUUUUUUUUUUUUUUU"
};
